<?xml version="1.0" encoding="UTF-8"?>
<svg version="1.1" xmlns="http://www.w3.org/2000/svg" width="330" height="327">
<path d="M0 0 C3.43396517 0.00848491 6.866248 -0.02029172 10.30004883 -0.05200195 C23.61243683 -0.09492306 35.91985505 0.90736166 48.77075195 4.44604492 C49.76131592 4.71247803 50.75187988 4.97891113 51.77246094 5.25341797 C54.0980068 5.93300352 56.36796756 6.68416714 58.64575195 7.50854492 C59.45544434 7.79818115 60.26513672 8.08781738 61.09936523 8.38623047 C76.54303313 14.15058321 90.79970833 22.32068944 103.77075195 32.44604492 C104.71950195 33.17307617 105.66825195 33.90010742 106.64575195 34.64916992 C141.78073165 62.39781866 160.76617127 101.92773995 167.2355957 145.58276367 C167.52971158 148.21369058 167.68691642 150.79975809 167.77075195 153.44604492 C167.79121582 154.07478516 167.81167969 154.70352539 167.83276367 155.35131836 C169.08457414 200.23027547 153.74282452 242.33682959 123.12915039 275.20874023 C92.75929046 307.31302963 52.13020076 325.07937576 8.0793457 326.57104492 C-34.08883861 327.24104586 -72.25586848 312.61591207 -104.22924805 285.44604492 C-104.96014648 284.83889648 -105.69104492 284.23174805 -106.4440918 283.60620117 C-111.19553739 279.58434416 -115.25175504 275.22579236 -119.22924805 270.44604492 C-119.92920898 269.63393555 -120.62916992 268.82182617 -121.3503418 267.98510742 C-150.29824462 233.76938866 -162.14522611 190.89015865 -159.02270508 146.51049805 C-155.51121621 109.31128514 -139.03473343 75.16274095 -113.22924805 48.44604492 C-112.3784668 47.53209961 -111.52768555 46.6181543 -110.65112305 45.67651367 C-98.94746571 33.42972254 -85.24886327 24.15248395 -70.22924805 16.44604492 C-69.31175781 15.96893066 -69.31175781 15.96893066 -68.37573242 15.48217773 C-61.02353248 11.70341547 -53.53953919 8.71593901 -45.66674805 6.19604492 C-44.93609131 5.96183838 -44.20543457 5.72763184 -43.45263672 5.48632812 C-41.05692964 4.7539345 -38.64893953 4.09474174 -36.22924805 3.44604492 C-34.84153198 3.03890259 -34.84153198 3.03890259 -33.42578125 2.62353516 C-22.39764547 -0.22639448 -11.32371439 -0.04256734 0 0 Z " fill="#FDFDFD" transform="translate(160.229248046875,-0.446044921875)"/>
<path d="M0 0 C6.66021809 1.42718959 12.85617491 3.23724462 18.0625 7.8125 C19.52124745 11.21624405 19.2958653 13.63826249 18 17 C13.30599446 25.17201522 6.67849455 31.57110616 -0.046875 38.0546875 C-2.60301409 40.53858963 -4.78757178 43.20360468 -7 46 C-8.09402467 47.01365793 -9.21987472 47.99406057 -10.375 48.9375 C-19.82625595 57.04614763 -28.54789358 65.99511476 -36.23046875 75.79296875 C-37.73206788 77.66582418 -39.26266263 79.34872268 -41 81 C-39.41706064 84.75644535 -36.95915193 87.48153229 -34.203125 90.4140625 C-33.68824524 90.96647614 -33.17336548 91.51888977 -32.6428833 92.08804321 C-24.35186805 100.90203384 -15.73852028 109.40909286 -7.17272949 117.95422363 C-5.26723056 119.85710669 -3.3654705 121.76370527 -1.46366501 123.67027855 C0.83948842 125.97794337 3.14647913 128.28176439 5.453125 130.5859375 C6.71277069 131.84861954 6.71277069 131.84861954 7.99786377 133.1368103 C15.1331107 140.24399677 22.48231573 146.82036892 30.625 152.75 C31.56859375 153.45189453 31.56859375 153.45189453 32.53125 154.16796875 C36.20636781 156.85949694 39.84482702 159.08222786 44 161 C44.63950144 166.11601151 43.29104273 168.99595025 40.48046875 173.09765625 C37.20043855 177.31236524 34.67619085 179.69773608 29.1875 180.6875 C17.44856044 179.84104895 6.60026494 165.95751215 -0.609375 157.77734375 C-2.31469185 155.79616682 -4.01271858 153.81020367 -5.703125 151.81640625 C-6.67677161 150.66900625 -7.65073896 149.52187834 -8.625 148.375 C-9.12008057 147.79194092 -9.61516113 147.20888184 -10.12524414 146.6081543 C-14.80459303 141.14191443 -19.70326015 135.89524672 -24.66064453 130.68115234 C-28.33143711 126.81479702 -31.89253471 122.87975402 -35.36743164 118.8359375 C-37.59965352 116.32564761 -39.98996283 113.99598767 -42.390625 111.6484375 C-44 110 -44 110 -46.375 107 C-49.82085297 103.06188233 -53.79938085 100.09326639 -58 97 C-58.37125 98.2375 -58.37125 98.2375 -58.75 99.5 C-60.48221048 104.35018934 -62.31840331 109.31840331 -66 113 C-66.21284905 115.52788997 -66.30396664 117.94294515 -66.30078125 120.47265625 C-66.30720894 121.60652016 -66.30720894 121.60652016 -66.31376648 122.76329041 C-66.31952308 124.37481691 -66.3200003 125.98636941 -66.31567383 127.59790039 C-66.31257881 130.0013042 -66.33572201 132.40339532 -66.36132812 134.80664062 C-66.40429337 145.51106419 -65.19580036 155.53332757 -63 166 C-62.66608842 167.66655091 -62.33248232 169.33316336 -62 171 C-63.93625098 171.98163422 -65.87404539 172.96022454 -67.8125 173.9375 C-68.89144531 174.48277344 -69.97039062 175.02804687 -71.08203125 175.58984375 C-75.67564177 177.80978136 -79.91070347 178.89460291 -85 178 C-88.3233695 175.39910213 -90.38344751 172.86806123 -92 169 C-92.24050903 166.84857178 -92.24050903 166.84857178 -92.22705078 164.50683594 C-92.22689972 163.62622498 -92.22674866 162.74561401 -92.22659302 161.83831787 C-92.21627045 160.89651672 -92.20594788 159.95471558 -92.1953125 158.984375 C-92.1924826 158.01340881 -92.18965271 157.04244263 -92.18673706 156.04205322 C-92.17555292 152.94457615 -92.15045142 149.8473895 -92.125 146.75 C-92.11496792 144.64844168 -92.10584247 142.54687882 -92.09765625 140.4453125 C-92.07561934 135.29676331 -92.04110145 130.14843087 -92 125 C-93.09578369 125.02255859 -94.19156738 125.04511719 -95.32055664 125.06835938 C-99.18859687 124.99649611 -101.0898465 124.33433069 -104.4375 122.5 C-105.30246094 122.0359375 -106.16742188 121.571875 -107.05859375 121.09375 C-107.69925781 120.7328125 -108.33992188 120.371875 -109 120 C-109 119.34 -109 118.68 -109 118 C-109.721875 117.773125 -110.44375 117.54625 -111.1875 117.3125 C-119.7478445 113.31767257 -124.6636076 103.41526065 -128.140625 95.04296875 C-128.96180581 92.98268586 -128.96180581 92.98268586 -130.08203125 91.07421875 C-132.127282 86.45282238 -131.91805054 80.69260633 -130.30078125 75.94921875 C-129.25 74.3125 -129.25 74.3125 -126 72 C-120.85329988 71.30637465 -115.94239483 71.35253506 -111 73 C-111.03480469 73.97839844 -111.06960937 74.95679688 -111.10546875 75.96484375 C-111.31655071 86.18724139 -111.00016523 94.03429474 -104 102 C-104 102.66 -104 103.32 -104 104 C-99.71 104.66 -95.42 105.32 -91 106 C-91.06160479 96.21932789 -91.1389876 86.43891398 -91.23571491 76.65852261 C-91.28016589 72.11554729 -91.31947527 67.57265647 -91.34643555 63.02954102 C-91.37272376 58.63323959 -91.41329939 54.23726785 -91.46318626 49.84117317 C-91.47968456 48.17616994 -91.49130357 46.51110992 -91.49761391 44.84603691 C-91.55273228 31.62124406 -93.27427986 19.72512954 -97 7 C-89.19310076 2.31586045 -82.28387183 -0.39120335 -73 1 C-69.82773851 2.66019133 -67.62367523 4.75264953 -66 8 C-65.90855217 10.0016875 -65.88248303 12.00648256 -65.88647461 14.01025391 C-65.88658791 15.90198837 -65.88658791 15.90198837 -65.88670349 17.8319397 C-65.89181051 19.21348103 -65.89702651 20.59502196 -65.90234375 21.9765625 C-65.90420856 23.3861791 -65.90563217 24.79579634 -65.90663147 26.20541382 C-65.91045167 29.91753932 -65.92027772 33.62962578 -65.93133545 37.34173584 C-65.94156025 41.12886019 -65.94613138 44.91599083 -65.95117188 48.703125 C-65.96190042 56.13543448 -65.97897089 63.56771177 -66 71 C-65.37996094 70.05527832 -64.75992188 69.11055664 -64.12109375 68.13720703 C-59.66479556 61.54611221 -54.63915864 57.2004739 -46.9375 55 C-40.50603199 53.13911839 -37.23881174 50.0475324 -33 45 C-32.4534375 44.39285156 -31.906875 43.78570312 -31.34375 43.16015625 C-29.52818071 41.13476882 -27.7664019 39.06841097 -26 37 C-25.17628906 36.06542969 -24.35257812 35.13085938 -23.50390625 34.16796875 C-18.32816544 28.24671251 -13.53562919 22.15913233 -9.0625 15.6875 C-8.61422852 15.04232422 -8.16595703 14.39714844 -7.70410156 13.73242188 C-4.71416249 9.32310795 -2.29898314 4.80599491 0 0 Z " fill="#E7E469" transform="translate(205,85)"/>
<path d="M0 0 C3.43396517 0.00848491 6.866248 -0.02029172 10.30004883 -0.05200195 C23.61243683 -0.09492306 35.91985505 0.90736166 48.77075195 4.44604492 C49.76131592 4.71247803 50.75187988 4.97891113 51.77246094 5.25341797 C54.0980068 5.93300352 56.36796756 6.68416714 58.64575195 7.50854492 C59.45544434 7.79818115 60.26513672 8.08781738 61.09936523 8.38623047 C76.54303313 14.15058321 90.79970833 22.32068944 103.77075195 32.44604492 C104.71950195 33.17307617 105.66825195 33.90010742 106.64575195 34.64916992 C141.78073165 62.39781866 160.76617127 101.92773995 167.2355957 145.58276367 C167.52971158 148.21369058 167.68691642 150.79975809 167.77075195 153.44604492 C167.79121582 154.07478516 167.81167969 154.70352539 167.83276367 155.35131836 C169.08457414 200.23027547 153.74282452 242.33682959 123.12915039 275.20874023 C92.75929046 307.31302963 52.13020076 325.07937576 8.0793457 326.57104492 C-34.08883861 327.24104586 -72.25586848 312.61591207 -104.22924805 285.44604492 C-104.96014648 284.83889648 -105.69104492 284.23174805 -106.4440918 283.60620117 C-111.19553739 279.58434416 -115.25175504 275.22579236 -119.22924805 270.44604492 C-119.92920898 269.63393555 -120.62916992 268.82182617 -121.3503418 267.98510742 C-150.29824462 233.76938866 -162.14522611 190.89015865 -159.02270508 146.51049805 C-155.51121621 109.31128514 -139.03473343 75.16274095 -113.22924805 48.44604492 C-112.3784668 47.53209961 -111.52768555 46.6181543 -110.65112305 45.67651367 C-98.94746571 33.42972254 -85.24886327 24.15248395 -70.22924805 16.44604492 C-69.31175781 15.96893066 -69.31175781 15.96893066 -68.37573242 15.48217773 C-61.02353248 11.70341547 -53.53953919 8.71593901 -45.66674805 6.19604492 C-44.93609131 5.96183838 -44.20543457 5.72763184 -43.45263672 5.48632812 C-41.05692964 4.7539345 -38.64893953 4.09474174 -36.22924805 3.44604492 C-34.84153198 3.03890259 -34.84153198 3.03890259 -33.42578125 2.62353516 C-22.39764547 -0.22639448 -11.32371439 -0.04256734 0 0 Z M-113.04174805 60.44604492 C-129.30575026 79.18168725 -141.85838381 102.13249299 -147.22924805 126.44604492 C-147.479729 127.56285645 -147.73020996 128.67966797 -147.98828125 129.83032227 C-150.10977371 140.0838754 -150.71197786 149.86807642 -150.60424805 160.32104492 C-150.60026001 161.10941742 -150.59627197 161.89778992 -150.59216309 162.71005249 C-150.5239835 174.20807269 -150.00060957 185.24165628 -147.22924805 196.44604492 C-146.93920898 197.7222168 -146.64916992 198.99838867 -146.3503418 200.31323242 C-139.91888918 226.63105946 -126.63357393 250.66331054 -107.67602539 269.9597168 C-106.29982838 271.37353512 -104.96062244 272.82308382 -103.6237793 274.27416992 C-78.82075132 300.54061408 -41.07550717 316.41775221 -5.2409668 317.76245117 C30.20018395 318.57288884 64.86119679 310.81972519 93.77075195 289.44604492 C94.55450195 288.87241211 95.33825195 288.2987793 96.14575195 287.70776367 C101.99008269 283.2940764 107.41057299 278.43022438 112.77075195 273.44604492 C113.75495117 272.56045898 113.75495117 272.56045898 114.7590332 271.65698242 C141.61068229 246.41754415 157.7913641 207.04393135 159.1887207 170.62573242 C160.45495144 127.53328677 146.45752778 87.46843033 116.91430664 55.734375 C96.71074076 34.46617754 71.75641384 20.66305806 43.77075195 12.44604492 C42.60801758 12.08897461 41.4452832 11.7319043 40.24731445 11.36401367 C-16.70924628 -3.67507821 -73.94857303 18.68275813 -113.04174805 60.44604492 Z " fill="#295043" transform="translate(160.229248046875,-0.446044921875)"/>
<path d="M0 0 C6.66021809 1.42718959 12.85617491 3.23724462 18.0625 7.8125 C19.52124745 11.21624405 19.2958653 13.63826249 18 17 C13.30599446 25.17201522 6.67849455 31.57110616 -0.046875 38.0546875 C-2.60301409 40.53858963 -4.78757178 43.20360468 -7 46 C-8.09402467 47.01365793 -9.21987472 47.99406057 -10.375 48.9375 C-19.82625595 57.04614763 -28.54789358 65.99511476 -36.23046875 75.79296875 C-37.73206788 77.66582418 -39.26266263 79.34872268 -41 81 C-39.41706064 84.75644535 -36.95915193 87.48153229 -34.203125 90.4140625 C-33.68824524 90.96647614 -33.17336548 91.51888977 -32.6428833 92.08804321 C-24.35186805 100.90203384 -15.73852028 109.40909286 -7.17272949 117.95422363 C-5.26723056 119.85710669 -3.3654705 121.76370527 -1.46366501 123.67027855 C0.83948842 125.97794337 3.14647913 128.28176439 5.453125 130.5859375 C6.29288879 131.42772552 7.13265259 132.26951355 7.99786377 133.1368103 C15.1331107 140.24399677 22.48231573 146.82036892 30.625 152.75 C31.56859375 153.45189453 31.56859375 153.45189453 32.53125 154.16796875 C36.20636781 156.85949694 39.84482702 159.08222786 44 161 C44.63950144 166.11601151 43.29104273 168.99595025 40.48046875 173.09765625 C37.20043855 177.31236524 34.67619085 179.69773608 29.1875 180.6875 C17.44856044 179.84104895 6.60026494 165.95751215 -0.609375 157.77734375 C-2.31469185 155.79616682 -4.01271858 153.81020367 -5.703125 151.81640625 C-6.67677161 150.66900625 -7.65073896 149.52187834 -8.625 148.375 C-9.12008057 147.79194092 -9.61516113 147.20888184 -10.12524414 146.6081543 C-14.80459303 141.14191443 -19.70326015 135.89524672 -24.66064453 130.68115234 C-28.33143711 126.81479702 -31.89253471 122.87975402 -35.36743164 118.8359375 C-37.59771583 116.32782667 -39.98678765 114.0004481 -42.3828125 111.65234375 C-44 110 -44 110 -46.5 106.9375 C-48.55260865 104.52568483 -50.35855725 102.86524661 -52.8125 100.9375 C-55.90709459 98.32939189 -55.90709459 98.32939189 -56.6875 95.5625 C-56 93 -56 93 -53.9921875 89.89453125 C-51.53398318 85.67236575 -51.44157391 81.92406163 -51.4375 77.125 C-51.38792711 68.8675726 -50.81337807 61.4151289 -44.671875 55.33984375 C-43.37865475 54.18970951 -42.070788 53.05586777 -40.75 51.9375 C-39.38303017 50.72142734 -38.018411 49.50270678 -36.65625 48.28125 C-36.01300781 47.71019531 -35.36976563 47.13914063 -34.70703125 46.55078125 C-31.48281335 43.62168627 -28.76028904 40.35626053 -26 37 C-25.1853125 36.07316406 -24.370625 35.14632812 -23.53125 34.19140625 C-18.34087479 28.26643037 -13.54262457 22.16925311 -9.0625 15.6875 C-8.61422852 15.04232422 -8.16595703 14.39714844 -7.70410156 13.73242188 C-4.71416249 9.32310795 -2.29898314 4.80599491 0 0 Z " fill="#154333" transform="translate(205,85)"/>
<path d="M0 0 C2.13859738 1.75117032 3.75183607 3.46851588 4.9921875 5.94921875 C5.53167642 12.78123391 5.1607191 19.74318282 5.05029297 26.58789062 C5.00195821 29.72230481 4.98641691 32.85545641 4.98486328 35.99023438 C4.89326362 80.43788926 4.89326362 80.43788926 -9.0078125 95.94921875 C-16.0896647 102.94921875 -16.0896647 102.94921875 -19.0078125 102.94921875 C-19.01589935 102.21689026 -19.02398621 101.48456177 -19.03231812 100.7300415 C-19.11118971 93.73125362 -19.19873315 86.73263558 -19.29533958 79.73407364 C-19.34468421 76.13850786 -19.3910029 72.54296314 -19.4296875 68.94726562 C-19.7181519 36.57380036 -19.7181519 36.57380036 -26.0078125 4.94921875 C-18.51736242 0.4549487 -8.65206607 -4.52802679 0 0 Z " fill="#154334" transform="translate(134.0078125,87.05078125)"/>
<path d="M0 0 C0.33 0 0.66 0 1 0 C1.01458252 0.61182129 1.02916504 1.22364258 1.04418945 1.85400391 C1.52740895 20.19585495 3.24664703 38.0308526 7 56 C5.06374902 56.98163422 3.12595461 57.96022454 1.1875 58.9375 C0.10855469 59.48277344 -0.97039062 60.02804687 -2.08203125 60.58984375 C-6.67564177 62.80978136 -10.91070347 63.89460291 -16 63 C-19.29469576 60.42154245 -21.52202169 57.90143707 -23 54 C-23.18045612 51.30204495 -23.25658491 48.7114272 -23.23046875 46.015625 C-23.23001053 45.24120056 -23.22955231 44.46677612 -23.2290802 43.66888428 C-23.2260636 42.03151924 -23.218195 40.39415692 -23.20581055 38.75683594 C-23.18766567 36.27268082 -23.18530033 33.78890171 -23.18554688 31.3046875 C-23.18062653 29.70833016 -23.17479597 28.11197532 -23.16796875 26.515625 C-23.16685593 25.78200745 -23.1657431 25.04838989 -23.16459656 24.2925415 C-23.12094887 19.45402089 -22.67643926 14.79209141 -22 10 C-21.39124023 9.96455078 -20.78248047 9.92910156 -20.15527344 9.89257812 C-11.52658079 9.32176293 -5.78551749 6.31147362 0 0 Z " fill="#154332" transform="translate(136,200)"/>
<path d="M0 0 C5.47221513 2.32569143 9.89415537 5.68837318 14 10 C14.33 10.99 14.66 11.98 15 13 C15.5775 13.515625 16.155 14.03125 16.75 14.5625 C22.86292571 21.18483619 26.62353848 30.87455541 26.2890625 39.875 C26 42 26 42 24.75 45.0625 C20.26632267 48.22145449 15.31133407 47.52291615 10 47 C8.515 46.505 8.515 46.505 7 46 C6.98582031 45.03320312 6.97164062 44.06640625 6.95703125 43.0703125 C6.62731324 34.06990207 5.9880983 26.11873897 -0.640625 19.31640625 C-4.57487818 16.18849776 -8.03361002 15.30406469 -13 15 C-9.09489511 9.49280079 -4.90282356 4.64172645 0 0 Z " fill="#E8E56B" transform="translate(182,145)"/>
<path d="M0 0 C7.20672016 1.04665226 10.93326706 4.08520404 15.3984375 9.78515625 C18.89817741 15.63046652 19.06037925 22.39234749 18 29 C16.55333464 31.49286973 15.43055814 32.35937325 13 34 C12.87882812 33.11957031 12.75765625 32.23914062 12.6328125 31.33203125 C12.46523437 30.17058594 12.29765625 29.00914063 12.125 27.8125 C11.96257812 26.66394531 11.80015625 25.51539062 11.6328125 24.33203125 C11.05939755 21.31275375 10.25240957 18.79424152 9 16 C9.24363281 17.06541016 9.24363281 17.06541016 9.4921875 18.15234375 C10.00361469 21.02027009 10.13309481 23.65241682 10.125 26.5625 C10.12757812 27.49191406 10.13015625 28.42132813 10.1328125 29.37890625 C10.01309964 31.74147476 9.66993233 33.74030763 9 36 C6.05180085 35.68412152 5.02444455 35.02453254 2.89746094 32.88989258 C0.56420216 29.3362662 0.46256309 27.17558153 0.390625 22.94921875 C0.37408875 22.29041214 0.35755249 21.63160553 0.34051514 20.95283508 C0.29222444 18.86429349 0.27070918 16.77647878 0.25 14.6875 C0.22182404 13.26493776 0.19189432 11.8424091 0.16015625 10.41992188 C0.08647437 6.94677175 0.03678285 3.47375928 0 0 Z " fill="#154032" transform="translate(111,31)"/>
<path d="M0 0 C0.6703125 0.29261719 1.340625 0.58523437 2.03125 0.88671875 C6.07655581 2.40370843 10.2545868 3.33006964 14.47265625 4.23632812 C19.27518399 5.40542831 21.90367517 7.16645497 25 11 C25.3125 13.8125 25.3125 13.8125 25 16 C18.73920552 16.43177893 15.90924297 15.92739438 11 12 C14.74427866 16.19813062 17.8403063 18.07776117 23 20 C20.795151 22.71366031 19.62388303 23.8914986 16.125 24.5 C11.98330661 23.83732906 10.17904542 22.78166474 7 20 C2.30244032 13.30953621 -0.15587011 8.26111609 0 0 Z " fill="#1F473A" transform="translate(95,61)"/>
<path d="M0 0 C3 1 3 1 4.1875 3.375 C6.09602547 11.88995978 5.50313841 18.27789338 1.38671875 26.00390625 C0 28 0 28 -3 30 C-6.1875 30.125 -6.1875 30.125 -9 30 C-8.6390625 29.44570312 -8.278125 28.89140625 -7.90625 28.3203125 C-7.4421875 27.59585938 -6.978125 26.87140625 -6.5 26.125 C-6.0359375 25.40570313 -5.571875 24.68640625 -5.09375 23.9453125 C-3.83663499 22.08139534 -3.83663499 22.08139534 -4 20 C-5.0828125 21.4540625 -5.0828125 21.4540625 -6.1875 22.9375 C-8.13237593 25.29913506 -8.7882535 25.93412331 -11.8125 26.875 C-12.534375 26.91625 -13.25625 26.9575 -14 27 C-14.59421468 22.92538506 -14.91458054 19.44742312 -12.65234375 15.8671875 C-10.83610458 13.83140293 -8.94636593 11.91133135 -7 10 C-5.86056947 8.74208886 -4.7344235 7.47195391 -3.625 6.1875 C-3.14289063 5.64480469 -2.66078125 5.10210937 -2.1640625 4.54296875 C-0.78444908 2.88486512 -0.78444908 2.88486512 0 0 Z " fill="#1F473A" transform="translate(137,53)"/>
<path d="M0 0 C0.144375 0.639375 0.28875 1.27875 0.4375 1.9375 C0.81007181 3.97545146 0.81007181 3.97545146 2 5 C2.99 5 3.98 5 5 5 C5 4.34 5 3.68 5 3 C5.66 3 6.32 3 7 3 C7 3.99 7 4.98 7 6 C-14.22529021 16.85506593 -14.22529021 16.85506593 -21 19 C-23 18 -23 18 -24 16 C-23.01 15.319375 -23.01 15.319375 -22 14.625 C-21.34 14.08875 -20.68 13.5525 -20 13 C-20 12.34 -20 11.68 -20 11 C-20.66 10.34 -21.32 9.68 -22 9 C-21.4652002 8.76289307 -20.93040039 8.52578613 -20.37939453 8.28149414 C-17.96104794 7.20898029 -15.54302048 6.13574885 -13.125 5.0625 C-12.28324219 4.68931641 -11.44148437 4.31613281 -10.57421875 3.93164062 C-9.76855469 3.57392578 -8.96289062 3.21621094 -8.1328125 2.84765625 C-7.38918457 2.51773682 -6.64555664 2.18781738 -5.87939453 1.84790039 C-1.7834725 0 -1.7834725 0 0 0 Z " fill="#244D3F" transform="translate(240,298)"/>
<path d="M0 0 C2.97 0.495 2.97 0.495 6 1 C5.01 1.33 4.02 1.66 3 2 C3 4.64 3 7.28 3 10 C3.66 10 4.32 10 5 10 C5 10.66 5 11.32 5 12 C5.639375 12.185625 6.27875 12.37125 6.9375 12.5625 C9 14 9 14 9.75 16.9375 C10.30346237 23.21007352 10.79643799 29.91207126 9 36 C6.05180085 35.68412152 5.02444455 35.02453254 2.89746094 32.88989258 C0.56420216 29.3362662 0.46256309 27.17558153 0.390625 22.94921875 C0.37408875 22.29041214 0.35755249 21.63160553 0.34051514 20.95283508 C0.29222444 18.86429349 0.27070918 16.77647878 0.25 14.6875 C0.22182404 13.26493776 0.19189432 11.8424091 0.16015625 10.41992188 C0.08647437 6.94677175 0.03678285 3.47375928 0 0 Z " fill="#1E483A" transform="translate(111,31)"/>
<path d="M0 0 C0.33 0 0.66 0 1 0 C1.15360204 8.19681109 1.30178366 16.39369425 1.4429636 24.59072781 C1.50868469 28.39655882 1.57630279 32.20233677 1.64819336 36.00805664 C1.7174476 39.67785535 1.781801 43.34770971 1.84269524 47.01765633 C1.86685021 48.42077847 1.89279867 49.82387087 1.92053413 51.2269268 C1.9589529 53.18562204 1.99051691 55.14444815 2.02172852 57.10327148 C2.04171402 58.22023911 2.06169952 59.33720673 2.08229065 60.48802185 C2 63 2 63 1 64 C-0.9562593 64.09927286 -2.91622909 64.12969729 -4.875 64.125 C-5.94492188 64.12757813 -7.01484375 64.13015625 -8.1171875 64.1328125 C-11 64 -11 64 -14 63 C-14.4640625 62.0409375 -14.4640625 62.0409375 -14.9375 61.0625 C-15.81150213 58.83355116 -15.81150213 58.83355116 -17.98828125 58.12890625 C-20 57 -20 57 -20.828125 55.1796875 C-22.30333728 47.12065746 -22.18222962 39.15983746 -22 31 C-23.56091166 30.89088773 -25.12408492 30.81390602 -26.6875 30.75 C-27.99267578 30.68039063 -27.99267578 30.68039063 -29.32421875 30.609375 C-33.02036688 31.14895867 -34.52557789 32.2074379 -37 35 C-37.37398847 37.81239326 -37.48293015 39.97592155 -37.3125 42.75 C-37.28994141 43.44738281 -37.26738281 44.14476562 -37.24414062 44.86328125 C-37.18547048 46.57644935 -37.09579256 48.28850623 -37 50 C-40.53147175 45.99891765 -40.58487532 42.88935227 -40.390625 37.70703125 C-40.01882701 35.13047119 -39.64364062 33.4913635 -38.25 31.3125 C-33.39753969 27.85978786 -28.77687976 28.3498953 -23 29 C-22.01 29.33 -21.02 29.66 -20 30 C-20.03480469 30.97839844 -20.06960937 31.95679688 -20.10546875 32.96484375 C-20.31655071 43.18724139 -20.00016523 51.03429474 -13 59 C-13 59.66 -13 60.32 -13 61 C-8.71 61.66 -4.42 62.32 0 63 C0 42.21 0 21.42 0 0 Z " fill="#DAE0A1" transform="translate(114,128)"/>
<path d="M0 0 C0.66 0 1.32 0 2 0 C3.10044272 6.01847068 2.25897092 10.27720701 -1.02368164 15.3527832 C-1.4283667 15.93761475 -1.83305176 16.52244629 -2.25 17.125 C-2.64501709 17.70531982 -3.04003418 18.28563965 -3.44702148 18.88354492 C-4.640625 20.5078125 -4.640625 20.5078125 -7 23 C-8.32 23 -9.64 23 -11 23 C-11.33 23.66 -11.66 24.32 -12 25 C-12.66 24.34 -13.32 23.68 -14 23 C-14.66 23.66 -15.32 24.32 -16 25 C-16.45309752 19.81625713 -15.38459874 17.33852435 -12.3125 13.1875 C-11.62800781 12.23230469 -10.94351562 11.27710937 -10.23828125 10.29296875 C-7.7644614 7.75870653 -6.47271583 7.27368163 -3 7 C-2.67 5.68 -2.34 4.36 -2 3 C-1.34 3 -0.68 3 0 3 C0 2.01 0 1.02 0 0 Z " fill="#2A5144" transform="translate(42,55)"/>
<path d="M0 0 C0.66 0.33 1.32 0.66 2 1 C1.04956626 2.33897583 0.08940853 3.67105427 -0.875 5 C-1.40867187 5.7425 -1.94234375 6.485 -2.4921875 7.25 C-3.23855469 8.11625 -3.23855469 8.11625 -4 9 C-4.66 9 -5.32 9 -6 9 C-6.33 9.66 -6.66 10.32 -7 11 C-5.68 11 -4.36 11 -3 11 C-2.66186945 14.18175303 -2.65440952 15.55179952 -4.64453125 18.1328125 C-5.35996094 18.79023437 -6.07539062 19.44765625 -6.8125 20.125 C-7.87404297 21.11886719 -7.87404297 21.11886719 -8.95703125 22.1328125 C-9.63121094 22.74898437 -10.30539063 23.36515625 -11 24 C-12.00555851 24.99441042 -13.0078551 25.99220613 -14 27 C-14.84454356 23.62182575 -15.10844919 21.32534757 -14 18 C-14.66 18 -15.32 18 -16 18 C-16 18.99 -16 19.98 -16 21 C-16.66 21 -17.32 21 -18 21 C-18.33 22.32 -18.66 23.64 -19 25 C-20.32 25.33 -21.64 25.66 -23 26 C-18.52378746 15.84776538 -7.83862676 7.71925681 0 0 Z " fill="#1C4638" transform="translate(58,37)"/>
<path d="M0 0 C0.66 0.33 1.32 0.66 2 1 C1.690625 1.5775 1.38125 2.155 1.0625 2.75 C0.07416636 4.84294184 -0.5168613 6.74535275 -1 9 C-4.01031744 9.93423645 -4.86650268 10.04449911 -8 9 C-8.33 10.32 -8.66 11.64 -9 13 C-7.68 12.34 -6.36 11.68 -5 11 C-4.875 13.375 -4.875 13.375 -5 16 C-5.66 16.66 -6.32 17.32 -7 18 C-7.99 18 -8.98 18 -10 18 C-10 24.93 -10 31.86 -10 39 C-11.98 39.495 -11.98 39.495 -14 40 C-14.103125 40.639375 -14.20625 41.27875 -14.3125 41.9375 C-14.539375 42.618125 -14.76625 43.29875 -15 44 C-16.485 44.495 -16.485 44.495 -18 45 C-16.14149444 40.22098569 -16.14149444 40.22098569 -14.95703125 38.37109375 C-13.4988605 34.75840132 -13.66061147 31.17352116 -13.5625 27.3125 C-13.09403966 17.17461517 -12.61324502 11.07716493 -4.8125 3.9375 C-3.22302163 2.60724986 -1.62353165 1.28846883 0 0 Z " fill="#224933" transform="translate(167,135)"/>
<path d="M0 0 C0.99 0.33 1.98 0.66 3 1 C2 4 2 4 0 5 C-0.41894531 5.73605469 -0.83789062 6.47210938 -1.26953125 7.23046875 C-3.33830263 10.54143694 -5.76433428 12.73323613 -8.6875 15.3125 C-9.19861328 15.76689453 -9.70972656 16.22128906 -10.23632812 16.68945312 C-11.48576335 17.79876478 -12.74217823 18.90020678 -14 20 C-14.33 18.68 -14.66 17.36 -15 16 C-16.32 16 -17.64 16 -19 16 C-18.67 15.01 -18.34 14.02 -18 13 C-17.34 13 -16.68 13 -16 13 C-14.44929804 10.78990865 -13.10566858 8.48678607 -11.73046875 6.1640625 C-9.67145593 3.5891345 -8.14108029 2.89745151 -5 2 C-4.01 2 -3.02 2 -2 2 C-1.34 1.34 -0.68 0.68 0 0 Z " fill="#184435" transform="translate(70,32)"/>
<path d="M0 0 C0.33 1.65 0.66 3.3 1 5 C0.01 5.66 -0.98 6.32 -2 7 C-2.99 8.485 -2.99 8.485 -4 10 C-7.49933773 11.16644591 -10.32484973 11.06447632 -14 11 C-15.32 11 -16.64 11 -18 11 C-18.66 10.34 -19.32 9.68 -20 9 C-19.4375 7.1875 -19.4375 7.1875 -18 5 C-14.75 3.375 -14.75 3.375 -11 2 C-9.453125 1.4121875 -9.453125 1.4121875 -7.875 0.8125 C-5.08693523 0.02456865 -2.8773807 -0.16925769 0 0 Z " fill="#224A3C" transform="translate(220,308)"/>
<path d="M0 0 C2.90864839 1.45432419 3.28406705 3.72376269 4.3359375 6.65625 C5.39320948 10.38779817 5.74091517 14.14052938 6 18 C6.5775 17.319375 7.155 16.63875 7.75 15.9375 C8.86375 14.9784375 8.86375 14.9784375 10 14 C12.140625 14.37890625 12.140625 14.37890625 14 15 C13.44570312 15.47308594 12.89140625 15.94617187 12.3203125 16.43359375 C7.04911367 21.24520407 4.66218761 24.84837376 4 32 C3.01 31.67 2.02 31.34 1 31 C0.30741771 29.00882592 -0.35747635 27.0078864 -1 25 C-2.96981607 22.49296136 -5.10895008 21.29598789 -8 20 C-7.01 19.01 -6.02 18.02 -5 17 C-4.566875 17.474375 -4.13375 17.94875 -3.6875 18.4375 C-1.97690387 20.23686957 -1.97690387 20.23686957 1 21 C1.02719556 18.62492145 1.04693247 16.25016036 1.0625 13.875 C1.07087891 13.20984375 1.07925781 12.5446875 1.08789062 11.859375 C1.10782292 7.79318646 0.78890161 3.9879908 0 0 Z " fill="#E8F3F1" transform="translate(119,46)"/>
<path d="M0 0 C4.87773605 0.45374289 7.52177888 1.52177888 11 5 C12.8125 8.25 12.8125 8.25 14 11 C8.76398101 12.07100388 5.97935989 12.25059557 1.421875 9.37109375 C0.54015625 8.73300781 -0.3415625 8.09492187 -1.25 7.4375 C-2.14203125 6.79683594 -3.0340625 6.15617187 -3.953125 5.49609375 C-4.62859375 5.00238281 -5.3040625 4.50867187 -6 4 C-5.67 3.01 -5.34 2.02 -5 1 C-4.67 1.66 -4.34 2.32 -4 3 C-2.68 2.67 -1.36 2.34 0 2 C0 1.34 0 0.68 0 0 Z " fill="#2A5144" transform="translate(255,29)"/>
<path d="M0 0 C0.54785156 0.23976563 1.09570312 0.47953125 1.66015625 0.7265625 C1.14453125 1.3246875 0.62890625 1.9228125 0.09765625 2.5390625 C-0.37671875 3.2609375 -0.85109375 3.9828125 -1.33984375 4.7265625 C-1.00984375 5.7165625 -0.67984375 6.7065625 -0.33984375 7.7265625 C0.32015625 8.0565625 0.98015625 8.3865625 1.66015625 8.7265625 C-1.96984375 11.3665625 -5.59984375 14.0065625 -9.33984375 16.7265625 C-9.66984375 15.7365625 -9.99984375 14.7465625 -10.33984375 13.7265625 C-9.34984375 13.0665625 -8.35984375 12.4065625 -7.33984375 11.7265625 C-7.33984375 11.0665625 -7.33984375 10.4065625 -7.33984375 9.7265625 C-7.93796875 10.0565625 -8.53609375 10.3865625 -9.15234375 10.7265625 C-11.33984375 11.7265625 -11.33984375 11.7265625 -14.33984375 11.7265625 C-15.67965861 12.0328059 -17.01496262 12.36107805 -18.33984375 12.7265625 C-15.12267085 9.17657862 -11.58971512 6.25671181 -7.77734375 3.3515625 C-6.84792969 2.64257812 -5.91851562 1.93359375 -4.9609375 1.203125 C-2.33984375 -0.2734375 -2.33984375 -0.2734375 0 0 Z " fill="#2B4F43" transform="translate(79.33984375,23.2734375)"/>
<path d="M0 0 C3.92345766 0.25727591 7.13759045 0.85353437 10.8125 2.25 C11.1425 3.24 11.4725 4.23 11.8125 5.25 C10.8225 5.745 10.8225 5.745 9.8125 6.25 C9.8125 7.24 9.8125 8.23 9.8125 9.25 C4.3735835 9.46755666 -0.05830814 9.35428384 -5.1875 7.25 C-5.3125 4.875 -5.3125 4.875 -5.1875 2.25 C-3.1875 0.25 -3.1875 0.25 0 0 Z " fill="#254E40" transform="translate(118.1875,310.75)"/>
<path d="M0 0 C0.39253254 4.44870215 -0.84694043 7.14243493 -3 11 C-3.99 11 -4.98 11 -6 11 C-6.66 11.66 -7.32 12.32 -8 13 C-10.625 12.625 -10.625 12.625 -13 12 C-13 12.66 -13 13.32 -13 14 C-13.66 14 -14.32 14 -15 14 C-13.54598925 6.72994625 -7.91060164 -0.80072407 0 0 Z " fill="#164434" transform="translate(284,266)"/>
<path d="M0 0 C4.08660181 1.70275075 5.53242041 3.63479962 7.25 7.5625 C7.84135986 9.03847606 8.42600668 10.51718394 9 12 C9.33 12.66 9.66 13.32 10 14 C9.34 14 8.68 14 8 14 C7.67 15.98 7.34 17.96 7 20 C3.95483798 17.16667533 1.83131399 14.34499689 -0.25 10.75 C-0.77078125 9.85796875 -1.2915625 8.9659375 -1.828125 8.046875 C-2.21484375 7.37140625 -2.6015625 6.6959375 -3 6 C-2.01 5.34 -1.02 4.68 0 4 C-0.66 3.34 -1.32 2.68 -2 2 C-1.34 2 -0.68 2 0 2 C0 1.34 0 0.68 0 0 Z " fill="#214A3C" transform="translate(285,54)"/>
<path d="M0 0 C1.32 0.66 2.64 1.32 4 2 C3.32584613 7.2584002 1.75734451 12.02638346 0 17 C-0.99 16.67 -1.98 16.34 -3 16 C-3 15.34 -3 14.68 -3 14 C-4.32 14 -5.64 14 -7 14 C-7.33663062 10.29706315 -7.47736015 8.60465619 -5.125 5.625 C-3 4 -3 4 -1 4 C-0.67 2.68 -0.34 1.36 0 0 Z " fill="#194536" transform="translate(16,102)"/>
<path d="M0 0 C0 3 0 3 -1 5 C-0.34 5 0.32 5 1 5 C1 4.34 1 3.68 1 3 C4.15680299 2.15818587 6.72572803 2 10 2 C5.75358921 7.20185321 1.29331458 11.84367423 -4 16 C-4.33 16 -4.66 16 -5 16 C-5 13.33333333 -5 10.66666667 -5 8 C-5.66 7.34 -6.32 6.68 -7 6 C-4.69 4.02 -2.38 2.04 0 0 Z " fill="#315649" transform="translate(270,275)"/>
<path d="M0 0 C4.54075781 4.14010271 7.71842138 8.82390176 11 14 C10 16 10 16 8 17 C7.67 17.99 7.34 18.98 7 20 C6.01 20.33 5.02 20.66 4 21 C1.55656684 17.77466823 0.9635555 16.43004509 1.3125 12.3125 C1.539375 11.219375 1.76625 10.12625 2 9 C2.18490007 6.67642489 2.18490007 6.67642489 0 4 C0 2.68 0 1.36 0 0 Z " fill="#275042" transform="translate(291,59)"/>
<path d="M0 0 C1.32 0 2.64 0 4 0 C5.95703125 2.30078125 5.95703125 2.30078125 7.8125 5.3125 C8.43769531 6.29863281 9.06289063 7.28476563 9.70703125 8.30078125 C11 11 11 11 10 14 C8.35 14 6.7 14 5 14 C4.67 13.01 4.34 12.02 4 11 C1.98491642 10.26676204 1.98491642 10.26676204 0 10 C-0.19412181 8.52168779 -0.38012131 7.04230684 -0.5625 5.5625 C-0.66691406 4.73878906 -0.77132813 3.91507813 -0.87890625 3.06640625 C-0.91886719 2.38449219 -0.95882813 1.70257813 -1 1 C-0.67 0.67 -0.34 0.34 0 0 Z " fill="#184435" transform="translate(27,240)"/>
<path d="M0 0 C1.98 1.65 3.96 3.3 6 5 C5.01 5.495 5.01 5.495 4 6 C3.34786708 8.02463255 3.34786708 8.02463255 3 10 C2.34 10 1.68 10 1 10 C1.33 10.99 1.66 11.98 2 13 C-1.38818502 11.56394807 -3.3186598 9.79533421 -5.6875 7 C-6.28949219 6.29875 -6.89148437 5.5975 -7.51171875 4.875 C-9 3 -9 3 -10 1 C-8.8553125 1.2784375 -8.8553125 1.2784375 -7.6875 1.5625 C-4.91032625 2.22819173 -4.91032625 2.22819173 -2 1 C-1.34 1.33 -0.68 1.66 0 2 C0 1.34 0 0.68 0 0 Z " fill="#2C5346" transform="translate(50,267)"/>
<path d="M0 0 C0 0.33 0 0.66 0 1 C-0.969375 1.2475 -1.93875 1.495 -2.9375 1.75 C-3.948125 2.1625 -4.95875 2.575 -6 3 C-6.96877057 5.03243548 -6.96877057 5.03243548 -7 7 C-11.84659077 6.40895235 -15.60748167 5.02055843 -20 3 C-19.360625 2.71125 -18.72125 2.4225 -18.0625 2.125 C-15.84793921 1.17176549 -15.84793921 1.17176549 -15 -1 C-9.52998207 -2.82333931 -5.31418893 -2.02445293 0 0 Z " fill="#274F42" transform="translate(120,310)"/>
<path d="M0 0 C0 0.66 0 1.32 0 2 C0.66 2.33 1.32 2.66 2 3 C0.68 3.33 -0.64 3.66 -2 4 C-1.67 5.65 -1.34 7.3 -1 9 C-1.99 9.33 -2.98 9.66 -4 10 C-4 9.34 -4 8.68 -4 8 C-4.66 8 -5.32 8 -6 8 C-6 8.66 -6 9.32 -6 10 C-7.65 10.33 -9.3 10.66 -11 11 C-11 8.66666667 -11 6.33333333 -11 4 C-7.35428203 0.947771 -4.79142225 -0.56369674 0 0 Z " fill="#1D4739" transform="translate(251,293)"/>
<path d="M0 0 C0.99 0 1.98 0 3 0 C2.75636719 0.75603516 2.75636719 0.75603516 2.5078125 1.52734375 C1.8158028 4.89689865 1.86827981 8.12512098 1.875 11.5625 C1.87113281 12.23474609 1.86726563 12.90699219 1.86328125 13.59960938 C1.86938927 16.67499752 2.02008771 19.06026313 3 22 C3.99 22.33 4.98 22.66 6 23 C7.03291676 24.98320018 8.0337499 26.98347806 9 29 C9.66 29.33 10.32 29.66 11 30 C11 30.66 11 31.32 11 32 C13.97 32 16.94 32 20 32 C20 32.33 20 32.66 20 33 C11.09429884 33.77816806 11.09429884 33.77816806 7.1875 31 C1.88859095 23.73292473 -1.15062069 18.64813923 -1.125 9.4375 C-1.12757812 8.50808594 -1.13015625 7.57867187 -1.1328125 6.62109375 C-1.01309964 4.25852524 -0.66993233 2.25969237 0 0 Z " fill="#FCFCD8" transform="translate(94,158)"/>
<path d="M0 0 C2.31 0.33 4.62 0.66 7 1 C7.66 2.65 8.32 4.3 9 6 C7.9375 7.5625 7.9375 7.5625 6 9 C1.88665824 8.7756359 -1.45354279 8.12787433 -5 6 C-5 5.34 -5 4.68 -5 4 C-3.35 3.34 -1.7 2.68 0 2 C0 1.34 0 0.68 0 0 Z " fill="#244B3E" transform="translate(236,17)"/>
<path d="M0 0 C6.3 -0.48461538 6.3 -0.48461538 9.4375 1.6875 C11.25953249 4.38410809 11.35430394 5.81126451 11 9 C3.25 9.125 3.25 9.125 1 8 C0.40644386 5.35139573 0.25790731 2.70802678 0 0 Z " fill="#164133" transform="translate(109,68)"/>
<path d="M0 0 C4.85963179 0.60745397 8.7405518 2.72758967 13 5 C12.01 5.33 11.02 5.66 10 6 C10.33 6.99 10.66 7.98 11 9 C3.36607143 11.54464286 3.36607143 11.54464286 -1 9.625 C-1.99 9.08875 -2.98 8.5525 -4 8 C-4 7.67 -4 7.34 -4 7 C-1.69 6.34 0.62 5.68 3 5 C2.16666667 2.83333333 2.16666667 2.83333333 0 2 C0 1.34 0 0.68 0 0 Z " fill="#385D50" transform="translate(226,11)"/>
<path d="M0 0 C3.25543229 0.34879632 4.01873107 1.02133261 6.25 3.5625 C6.8275 4.366875 7.405 5.17125 8 6 C7.3125 7.9375 7.3125 7.9375 6 10 C3.375 10.75 3.375 10.75 1 11 C-3 6.25 -3 6.25 -3 4 C-2.34 4 -1.68 4 -1 4 C-0.67 2.68 -0.34 1.36 0 0 Z " fill="#234B3E" transform="translate(54,273)"/>
<path d="M0 0 C1.875 0.25 1.875 0.25 4 1 C4.268125 1.598125 4.53625 2.19625 4.8125 2.8125 C6.2898344 5.53390547 8.12028023 6.4485506 10.81640625 7.85546875 C12.4348376 8.70376998 14.02213417 9.61204716 15.58984375 10.55078125 C21.56611951 14.06278622 26.05592148 15.77232529 33 16 C32.01 16.33 31.02 16.66 30 17 C30 19.64 30 22.28 30 25 C29.67 25 29.34 25 29 25 C29 22.36 29 19.72 29 17 C28.05125 17.103125 27.1025 17.20625 26.125 17.3125 C20.81142972 17.36705411 16.51093167 14.54136995 12 12 C12 11.34 12 10.68 12 10 C11.278125 9.773125 10.55625 9.54625 9.8125 9.3125 C5.35206364 7.23096303 2.69789496 4.04684244 0 0 Z " fill="#DADE8A" transform="translate(84,193)"/>
<path d="M0 0 C0.70074844 3.153368 1 5.72724974 1 9 C-1 11.25 -1 11.25 -3 13 C-3.84454356 9.62182575 -4.10844919 7.32534757 -3 4 C-3.66 4 -4.32 4 -5 4 C-5 4.99 -5 5.98 -5 7 C-5.66 7 -6.32 7 -7 7 C-7.33 8.32 -7.66 9.64 -8 11 C-9.32 11.33 -10.64 11.66 -12 12 C-10.56869725 8.83831632 -8.82485862 6.37725517 -6.5625 3.75 C-5.96566406 3.04359375 -5.36882813 2.3371875 -4.75390625 1.609375 C-3 0 -3 0 0 0 Z " fill="#1F4739" transform="translate(47,51)"/>
<path d="M0 0 C0.53625 0.226875 1.0725 0.45375 1.625 0.6875 C0.696875 1.7084375 0.696875 1.7084375 -0.25 2.75 C-4.99701234 9.31204647 -4.73072643 16.66612122 -4.94140625 24.45507812 C-5.17235525 30.48485525 -5.17235525 30.48485525 -7.375 32.6875 C-7.69917212 23.17845101 -6.70918593 14.07445104 -5.375 4.6875 C-6.365 4.0275 -7.355 3.3675 -8.375 2.6875 C-2.95961538 -0.38942308 -2.95961538 -0.38942308 0 0 Z " fill="#D4DE7C" transform="translate(159.375,140.3125)"/>
<path d="M0 0 C0.33 0 0.66 0 1 0 C1.33 7.26 1.66 14.52 2 22 C0.68 22.33 -0.64 22.66 -2 23 C-2.103125 23.639375 -2.20625 24.27875 -2.3125 24.9375 C-2.539375 25.618125 -2.76625 26.29875 -3 27 C-3.99 27.33 -4.98 27.66 -6 28 C-5.07833258 25.62999807 -4.17974898 23.32691924 -2.95336914 21.09643555 C-1.9159566 18.8151906 -1.70701439 17.19928235 -1.62109375 14.70703125 C-1.58693359 13.91232422 -1.55277344 13.11761719 -1.51757812 12.29882812 C-1.49115234 11.47833984 -1.46472656 10.65785156 -1.4375 9.8125 C-1.12108119 1.12108119 -1.12108119 1.12108119 0 0 Z " fill="#294D21" transform="translate(155,152)"/>
<path d="M0 0 C2.475 0.495 2.475 0.495 5 1 C5 1.99 5 2.98 5 4 C7.31 3.34 9.62 2.68 12 2 C12.33 2.99 12.66 3.98 13 5 C12.01 5.495 12.01 5.495 11 6 C10.34 5.67 9.68 5.34 9 5 C9.33 5.99 9.66 6.98 10 8 C9.5625 10.6875 9.5625 10.6875 9 13 C5.48026899 9.74098981 2.47239725 6.1139069 0 2 C0 1.34 0 0.68 0 0 Z " fill="#365A4E" transform="translate(27,250)"/>
<path d="M0 0 C0.99 0 1.98 0 3 0 C4.46845421 5.47332932 3.44038726 8.11922548 1 13 C0.67 12.01 0.34 11.02 0 10 C-0.66 10 -1.32 10 -2 10 C-2.66 9.01 -3.32 8.02 -4 7 C-4.66 7 -5.32 7 -6 7 C-5.34 5.68 -4.68 4.36 -4 3 C-3.34 3 -2.68 3 -2 3 C-1.34 2.01 -0.68 1.02 0 0 Z " fill="#31584B" transform="translate(309,225)"/>
<path d="M0 0 C1.65 0.33 3.3 0.66 5 1 C5 1.99 5 2.98 5 4 C5.66 4.33 6.32 4.66 7 5 C6.01 5 5.02 5 4 5 C3.67 6.32 3.34 7.64 3 9 C-0.59391114 7.66511872 -3.75490696 6.03977277 -7 4 C-6.34 3.67 -5.68 3.34 -5 3 C-4.01 3.33 -3.02 3.66 -2 4 C-1.34 2.68 -0.68 1.36 0 0 Z " fill="#30574A" transform="translate(86,298)"/>
<path d="M0 0 C2.6422749 3.12268852 4.16162022 5.97577704 5 10 C3.625 12.375 3.625 12.375 2 14 C2 13.34 2 12.68 2 12 C0.68 12.33 -0.64 12.66 -2 13 C-2.66 11.02 -3.32 9.04 -4 7 C-3.01 6.67 -2.02 6.34 -1 6 C-0.67 4.02 -0.34 2.04 0 0 Z " fill="#174334" transform="translate(124,39)"/>
<path d="M0 0 C0.66 0 1.32 0 2 0 C2.33 1.32 2.66 2.64 3 4 C2.01 4.33 1.02 4.66 0 5 C-0.33 6.98 -0.66 8.96 -1 11 C-0.34 11.33 0.32 11.66 1 12 C0.34 12.66 -0.32 13.32 -1 14 C-2.00533667 12.37829621 -3.00411907 10.75252763 -4 9.125 C-4.556875 8.22007812 -5.11375 7.31515625 -5.6875 6.3828125 C-7 4 -7 4 -7 2 C-6.401875 2.226875 -5.80375 2.45375 -5.1875 2.6875 C-4.465625 2.790625 -3.74375 2.89375 -3 3 C-1.35405861 1.60411246 -1.35405861 1.60411246 0 0 Z " fill="#3D5D52" transform="translate(27,236)"/>
<path d="M0 0 C1.5 1.125 1.5 1.125 3 3 C3.1875 6.1875 3.1875 6.1875 3 9 C1.35 9.66 -0.3 10.32 -2 11 C-2.66 9.02 -3.32 7.04 -4 5 C-3.34 5 -2.68 5 -2 5 C-1.7834375 4.0409375 -1.7834375 4.0409375 -1.5625 3.0625 C-1 1 -1 1 0 0 Z " fill="#174234" transform="translate(300,74)"/>
<path d="M0 0 C3.63 2.31 7.26 4.62 11 7 C10.01 7.495 10.01 7.495 9 8 C8.01 7.67 7.02 7.34 6 7 C6 7.66 6 8.32 6 9 C6.66 9.33 7.32 9.66 8 10 C6.02 10 4.04 10 2 10 C1.34 6.7 0.68 3.4 0 0 Z M-3 8 C-1.68 8.33 -0.36 8.66 1 9 C0.01 9.495 0.01 9.495 -1 10 C-1.66 9.34 -2.32 8.68 -3 8 Z " fill="#3B5E52" transform="translate(249,22)"/>
<path d="M0 0 C0 0.99 0 1.98 0 3 C-0.33 3.33 -0.66 3.66 -1 4 C-1.15806531 5.92478813 -1.251135 7.8549921 -1.31640625 9.78515625 C-1.35830078 10.95498047 -1.40019531 12.12480469 -1.44335938 13.33007812 C-1.48267578 14.56177734 -1.52199219 15.79347656 -1.5625 17.0625 C-1.62727539 18.91584961 -1.62727539 18.91584961 -1.69335938 20.80664062 C-1.79984198 23.87097335 -1.90185424 26.93539073 -2 30 C-2.33 30 -2.66 30 -3 30 C-3.33 22.41 -3.66 14.82 -4 7 C-5.32 7.99 -6.64 8.98 -8 10 C-7.3125 6.625 -7.3125 6.625 -6 3 C-3.4375 1.625 -3.4375 1.625 -1 1 C-0.67 0.67 -0.34 0.34 0 0 Z " fill="#BECB98" transform="translate(140,194)"/>
<path d="M0 0 C0.66 0 1.32 0 2 0 C3.33333333 2.66666667 4.66666667 5.33333333 6 8 C5.34 8 4.68 8 4 8 C3.67 9.98 3.34 11.96 3 14 C-1.76132597 9.69944751 -1.76132597 9.69944751 -2 6 C-1.34 5.01 -0.68 4.02 0 3 C0 2.01 0 1.02 0 0 Z " fill="#1F483A" transform="translate(289,60)"/>
<path d="M0 0 C1.98 1.65 3.96 3.3 6 5 C5.67 5.66 5.34 6.32 5 7 C5 7.99 5 8.98 5 10 C4.01 10.66 3.02 11.32 2 12 C2 12.99 2 13.98 2 15 C0.4375 13.3125 0.4375 13.3125 -1 11 C-0.74303831 8.30190224 -0.20824654 6.41649307 1 4 C0.34 3.67 -0.32 3.34 -1 3 C-0.67 2.01 -0.34 1.02 0 0 Z " fill="#385B50" transform="translate(281,48)"/>
<path d="M0 0 C2.97 0.495 2.97 0.495 6 1 C5.01 1.33 4.02 1.66 3 2 C3 4.64 3 7.28 3 10 C3.66 10 4.32 10 5 10 C5 10.66 5 11.32 5 12 C6.32 12.66 7.64 13.32 9 14 C8.34 14.66 7.68 15.32 7 16 C7 15.34 7 14.68 7 14 C6.01 14 5.02 14 4 14 C3.67 14.66 3.34 15.32 3 16 C2.34 16.33 1.68 16.66 1 17 C0.67 11.39 0.34 5.78 0 0 Z " fill="#284D41" transform="translate(111,31)"/>
<path d="M0 0 C0.66 0.33 1.32 0.66 2 1 C2.625 3.0625 2.625 3.0625 3 5 C4.65 5 6.3 5 8 5 C5.22719294 8.08089673 2.93673644 9.68775452 -1 11 C-1.625 9.125 -1.625 9.125 -2 7 C-1.34 6.34 -0.68 5.68 0 5 C0 4.34 0 3.68 0 3 C-0.99 2.67 -1.98 2.34 -3 2 C-2.01 1.34 -1.02 0.68 0 0 Z " fill="#3A5E52" transform="translate(251,290)"/>
<path d="M0 0 C0.33 0.66 0.66 1.32 1 2 C2.32 2 3.64 2 5 2 C5.99 3.98 6.98 5.96 8 8 C2.25 9.125 2.25 9.125 0 8 C-1.25 5.625 -1.25 5.625 -2 3 C-1.34 2.01 -0.68 1.02 0 0 Z " fill="#144031" transform="translate(261,32)"/>
<path d="M0 0 C0.66 0 1.32 0 2 0 C2 0.66 2 1.32 2 2 C3.32 1.34 4.64 0.68 6 0 C6.125 2.375 6.125 2.375 6 5 C5.34 5.66 4.68 6.32 4 7 C3.01 7 2.02 7 1 7 C1 8.98 1 10.96 1 13 C0.67 13 0.34 13 0 13 C-0.19466332 11.20909747 -0.38051213 9.41723495 -0.5625 7.625 C-0.66691406 6.62726563 -0.77132812 5.62953125 -0.87890625 4.6015625 C-1 2 -1 2 0 0 Z " fill="#1A4929" transform="translate(156,146)"/>
<path d="M0 0 C0.66 0 1.32 0 2 0 C2.66 1.65 3.32 3.3 4 5 C4.66 5 5.32 5 6 5 C7.04449911 8.13349732 6.93423645 8.98968256 6 12 C2.82149863 11.0799075 1.34822284 10.58564751 -0.375 7.6875 C-1.06313804 4.72850644 -0.82756731 2.89648559 0 0 Z " fill="#154132" transform="translate(101,71)"/>
<path d="M0 0 C0.33 0.66 0.66 1.32 1 2 C0.57589844 2.47308594 0.15179688 2.94617188 -0.28515625 3.43359375 C-4.74509048 8.46204707 -8.92819388 13.65343391 -13 19 C-14.32 18.67 -15.64 18.34 -17 18 C-16.59160889 17.5968457 -16.18321777 17.19369141 -15.76245117 16.77832031 C-13.90147279 14.93821617 -12.04446276 13.09415612 -10.1875 11.25 C-9.54490234 10.61578125 -8.90230469 9.9815625 -8.24023438 9.328125 C-7.61826172 8.709375 -6.99628906 8.090625 -6.35546875 7.453125 C-5.78465576 6.88754883 -5.21384277 6.32197266 -4.62573242 5.73925781 C-2.92652264 3.92139169 -1.45724172 2.01504683 0 0 Z " fill="#D5E5E1" transform="translate(218,108)"/>
<path d="M0 0 C0.66 0 1.32 0 2 0 C2 2.97 2 5.94 2 9 C1.34 9 0.68 9 0 9 C0 9.66 0 10.32 0 11 C-2.96175123 10.38722388 -4.38058783 9.74627478 -7 8 C-5.68 7.67 -4.36 7.34 -3 7 C-2.67 5.68 -2.34 4.36 -2 3 C-1.34 3 -0.68 3 0 3 C0 2.01 0 1.02 0 0 Z " fill="#114031" transform="translate(42,55)"/>
<path d="M0 0 C1 3 1 3 -0.25 5.9375 C-1.69742884 8.47050048 -3.17112453 10.73567799 -5 13 C-3.68 13.66 -2.36 14.32 -1 15 C-2.98 15 -4.96 15 -7 15 C-7 14.01 -7 13.02 -7 12 C-7.99 11.67 -8.98 11.34 -10 11 C-9.11054687 10.64808594 -9.11054687 10.64808594 -8.203125 10.2890625 C-5.48906 8.70104575 -4.41506759 7.02397116 -2.75 4.375 C-2.22921875 3.55773437 -1.7084375 2.74046875 -1.171875 1.8984375 C-0.78515625 1.27195312 -0.3984375 0.64546875 0 0 Z " fill="#C1D4CE" transform="translate(134,69)"/>
<path d="M0 0 C0.86625 0.3403125 0.86625 0.3403125 1.75 0.6875 C1.75 3.6875 1.75 3.6875 0.75 6.6875 C-0.19875 6.501875 -1.1475 6.31625 -2.125 6.125 C-5.14868793 5.40063368 -5.14868793 5.40063368 -7.25 6.6875 C-6.87492618 3.96821483 -6.40781339 2.84531339 -4.4375 0.875 C-2.25 -0.3125 -2.25 -0.3125 0 0 Z " fill="#174234" transform="translate(264.25,282.3125)"/>
<path d="M0 0 C2.38224928 2.38224928 2.32017149 3.0502037 2.375 6.3125 C2.26612986 9.38065843 1.93108959 11.1688305 0.75 14.0625 C-3.74452369 17.22909624 -8.67720809 16.37661264 -14 16 C-14 15.67 -14 15.34 -14 15 C-13.31292969 14.96261719 -12.62585938 14.92523438 -11.91796875 14.88671875 C-11.01691406 14.82097656 -10.11585938 14.75523437 -9.1875 14.6875 C-8.29417969 14.62949219 -7.40085938 14.57148438 -6.48046875 14.51171875 C-3.63674688 13.92506117 -2.69524301 13.32552566 -1 11 C-0.24821002 7.24105009 0 3.83625668 0 0 Z " fill="#E5E58A" transform="translate(206,176)"/>
<path d="M0 0 C1 3 1 3 0.28735352 4.90112305 C-0.28607788 5.94586792 -0.28607788 5.94586792 -0.87109375 7.01171875 C-1.28037109 7.76904297 -1.68964844 8.52636719 -2.11132812 9.30664062 C-2.54896484 10.09232422 -2.98660156 10.87800781 -3.4375 11.6875 C-4.0881543 12.88342773 -4.0881543 12.88342773 -4.75195312 14.10351562 C-5.82574763 16.07410554 -6.90864182 18.03909927 -8 20 C-8.33 20 -8.66 20 -9 20 C-9 18.35 -9 16.7 -9 15 C-8.34 15 -7.68 15 -7 15 C-6.87496094 14.44699219 -6.74992188 13.89398438 -6.62109375 13.32421875 C-5.9301082 10.73845521 -5.03803511 8.3047161 -4.0625 5.8125 C-3.72347656 4.93207031 -3.38445312 4.05164063 -3.03515625 3.14453125 C-2 1 -2 1 0 0 Z " fill="#24451D" transform="translate(136,158)"/>
<path d="M0 0 C1.65 0.33 3.3 0.66 5 1 C5.33 1.99 5.66 2.98 6 4 C5.01 4.495 5.01 4.495 4 5 C4 5.99 4 6.98 4 8 C1.36 7.67 -1.28 7.34 -4 7 C-3.525625 6.5875 -3.05125 6.175 -2.5625 5.75 C-0.83733482 3.817815 -0.43415125 2.51807725 0 0 Z " fill="#174133" transform="translate(124,312)"/>
<path d="M0 0 C3.66808393 3.33462175 4.92805728 5.64747689 5.1953125 10.671875 C5.18211335 12.03138796 5.15840107 13.39083332 5.125 14.75 C5.11597656 15.44738281 5.10695312 16.14476562 5.09765625 16.86328125 C5.07419888 18.57566958 5.03833104 20.28788004 5 22 C3.35 22.66 1.7 23.32 0 24 C0.495 23.360625 0.99 22.72125 1.5 22.0625 C4.8130789 15.29829725 2.91459789 8.74023523 0.65625 1.87109375 C0.4396875 1.25363281 0.223125 0.63617188 0 0 Z " fill="#FBFAD2" transform="translate(204,168)"/>
<path d="M0 0 C0.66 0.66 1.32 1.32 2 2 C2.99 2 3.98 2 5 2 C6.33981486 2.3062434 7.67511887 2.63451555 9 3 C7.68 4.65 6.36 6.3 5 8 C4.34 7.67 3.68 7.34 3 7 C3 6.34 3 5.68 3 5 C1.35 5 -0.3 5 -2 5 C-1.34 3.35 -0.68 1.7 0 0 Z " fill="#2E5447" transform="translate(25,76)"/>
<path d="M0 0 C2.125 0.9375 2.125 0.9375 4 2 C3.04578192 3.14926266 2.08647955 4.29430541 1.125 5.4375 C0.59132812 6.07558594 0.05765625 6.71367187 -0.4921875 7.37109375 C-2 9 -2 9 -4 10 C-4.33 8.68 -4.66 7.36 -5 6 C-4.34 5.67 -3.68 5.34 -3 5 C-2.835 4.34 -2.67 3.68 -2.5 3 C-2.335 2.34 -2.17 1.68 -2 1 C-1.34 0.67 -0.68 0.34 0 0 Z " fill="#234C2D" transform="translate(180,141)"/>
<path d="M0 0 C1.32 0 2.64 0 4 0 C3.6875 2.375 3.6875 2.375 3 5 C-0.4352048 7.29013653 -1.985331 7.17842973 -6 7 C-4.71034824 5.62437146 -3.37310707 4.29233607 -2 3 C-1.34 3 -0.68 3 0 3 C0 2.01 0 1.02 0 0 Z " fill="#194133" transform="translate(134,76)"/>
<path d="M0 0 C0.66 0 1.32 0 2 0 C2 3.3 2 6.6 2 10 C1.67 9.34 1.34 8.68 1 8 C-0.65 8 -2.3 8 -4 8 C-3.67 6.35 -3.34 4.7 -3 3 C-2.34 3 -1.68 3 -1 3 C-0.67 2.01 -0.34 1.02 0 0 Z " fill="#134031" transform="translate(295,247)"/>
<path d="M0 0 C1.98 0 3.96 0 6 0 C6 1.65 6 3.3 6 5 C3.36 5 0.72 5 -2 5 C-1.34 3.35 -0.68 1.7 0 0 Z " fill="#1E4739" transform="translate(114,72)"/>
<path d="M0 0 C0.66 0.33 1.32 0.66 2 1 C1.04956626 2.33897583 0.08940853 3.67105427 -0.875 5 C-1.40867187 5.7425 -1.94234375 6.485 -2.4921875 7.25 C-2.98976563 7.8275 -3.48734375 8.405 -4 9 C-4.66 9 -5.32 9 -6 9 C-6.495 9.66 -6.99 10.32 -7.5 11 C-7.995 11.66 -8.49 12.32 -9 13 C-9.66 13 -10.32 13 -11 13 C-9.46356148 9.31930113 -7.21849055 7.01224796 -4.375 4.25 C-3.55773438 3.45078125 -2.74046875 2.6515625 -1.8984375 1.828125 C-0.95871094 0.92320313 -0.95871094 0.92320313 0 0 Z " fill="#567168" transform="translate(58,37)"/>
<path d="M0 0 C0.66 0.33 1.32 0.66 2 1 C1.875 2.75 1.875 2.75 1 5 C-4.11111111 9 -4.11111111 9 -8 9 C-8.66 8.67 -9.32 8.34 -10 8 C-6.7 5.36 -3.4 2.72 0 0 Z " fill="#587369" transform="translate(71,27)"/>
<path d="M0 0 C1.98 0.66 3.96 1.32 6 2 C5.125 5.875 5.125 5.875 4 7 C2.00041636 7.04080783 -0.00045254 7.04254356 -2 7 C-1.34 4.69 -0.68 2.38 0 0 Z " fill="#124031" transform="translate(224,11)"/>
<path d="M0 0 C2.125 0.9375 2.125 0.9375 4 2 C2.63016497 5.16115776 2.0109362 5.9927092 -1 8 C-1 7.34 -1 6.68 -1 6 C-1.99 5.67 -2.98 5.34 -4 5 C-2.25 1.125 -2.25 1.125 0 0 Z " fill="#164535" transform="translate(24,232)"/>
<path d="M0 0 C0 3.75803673 -0.92114325 4.3266874 -3.4375 7 C-5.7432742 9.45949248 -6.92009658 10.76028974 -8 14 C-9.65 14.33 -11.3 14.66 -13 15 C-9.09489511 9.49280079 -4.90282356 4.64172645 0 0 Z " fill="#CFDD81" transform="translate(182,145)"/>
<path d="M0 0 C2.475 0.99 2.475 0.99 5 2 C5 2.66 5 3.32 5 4 C5.66 4 6.32 4 7 4 C10.75960806 7.75960806 11.58894145 10.75900345 12 16 C10 15 10 15 8.5625 11.5625 C7.29809012 7.80931887 7.29809012 7.80931887 4 6 C3.67 5.01 3.34 4.02 3 3 C1.50014391 1.33289654 1.50014391 1.33289654 0 0 Z " fill="#F9F8CC" transform="translate(192,152)"/>
<path d="M0 0 C2.27024968 -0.08097324 4.54132075 -0.13917704 6.8125 -0.1875 C8.07707031 -0.22230469 9.34164062 -0.25710937 10.64453125 -0.29296875 C14 0 14 0 15.94921875 1.51171875 C16.29597656 2.00285156 16.64273438 2.49398437 17 3 C15.41058594 2.98259766 15.41058594 2.98259766 13.7890625 2.96484375 C12.40104342 2.95546524 11.01302245 2.94636511 9.625 2.9375 C8.57699219 2.92493164 8.57699219 2.92493164 7.5078125 2.91210938 C3.62704624 2.8164558 3.62704624 2.8164558 0 4 C0 2.68 0 1.36 0 0 Z " fill="#FDFDDF" transform="translate(77,155)"/>
<path d="M0 0 C2.8729547 1.43647735 3.29088121 3.62050336 4.3359375 6.5234375 C5.52046508 10.94102858 5.75729157 15.44712467 6 20 C5.34 20 4.68 20 4 20 C3.67 17.36 3.34 14.72 3 12 C2.67 12 2.34 12 2 12 C1.34 8.04 0.68 4.08 0 0 Z " fill="#A8C2BA" transform="translate(119,46)"/>
<path d="M0 0 C1.32 0.66 2.64 1.32 4 2 C3.01 2.495 3.01 2.495 2 3 C1.34786708 5.02463255 1.34786708 5.02463255 1 7 C0.34 7 -0.32 7 -1 7 C-0.67 7.99 -0.34 8.98 0 10 C-1.32 9.34 -2.64 8.68 -4 8 C-3.34 7.01 -2.68 6.02 -2 5 C-1.64830932 3.67139075 -1.31229724 2.33841672 -1 1 C-0.67 0.67 -0.34 0.34 0 0 Z " fill="#3B5F53" transform="translate(52,270)"/>
<path d="M0 0 C1.32 0.33 2.64 0.66 4 1 C5.35384615 7.4 5.35384615 7.4 3.5625 10.4375 C3.046875 10.953125 2.53125 11.46875 2 12 C2 9.66666667 2 7.33333333 2 5 C1.34 5 0.68 5 0 5 C0 3.35 0 1.7 0 0 Z " fill="#27493D" transform="translate(219,92)"/>
<path d="M0 0 C1.32 0.66 2.64 1.32 4 2 C2.92598892 4.91517292 2.22189824 6.77810176 0 9 C-1.32 7.35 -2.64 5.7 -4 4 C-2.68 2.68 -1.36 1.36 0 0 Z " fill="#154032" transform="translate(279,49)"/>
<path d="M0 0 C3.36720387 1.39332574 4.9859524 2.9789286 7 6 C4.525 7.485 4.525 7.485 2 9 C1.34 8.34 0.68 7.68 0 7 C0.30271961 5.65938457 0.63837971 4.32594105 1 3 C0.67 2.01 0.34 1.02 0 0 Z " fill="#244C3C" transform="translate(162,168)"/>
<path d="M0 0 C0.33 0 0.66 0 1 0 C1.0272415 1.41655793 1.04650467 2.83327045 1.0625 4.25 C1.07410156 5.03890625 1.08570312 5.8278125 1.09765625 6.640625 C1.00385306 8.90691002 0.63241063 10.8288895 0 13 C-1.9375 12.6875 -1.9375 12.6875 -4 12 C-4.33 11.01 -4.66 10.02 -5 9 C-4.01 9 -3.02 9 -2 9 C-1.34 6.03 -0.68 3.06 0 0 Z " fill="#133D2F" transform="translate(119,53)"/>
<path d="M0 0 C0.66 0 1.32 0 2 0 C2 0.99 2 1.98 2 3 C0.54735962 3.8638129 -0.9123163 4.71580454 -2.375 5.5625 C-3.59316406 6.27599609 -3.59316406 6.27599609 -4.8359375 7.00390625 C-5.55007812 7.33261719 -6.26421875 7.66132813 -7 8 C-7.66 7.67 -8.32 7.34 -9 7 C-7.875 5.0625 -7.875 5.0625 -6 3 C-2.8125 2.25 -2.8125 2.25 0 2 C0 1.34 0 0.68 0 0 Z " fill="#58736A" transform="translate(245,301)"/>
<path d="M0 0 C0.99 0.33 1.98 0.66 3 1 C4.125 6.75 4.125 6.75 3 9 C1.35 9 -0.3 9 -2 9 C-1.855625 8.443125 -1.71125 7.88625 -1.5625 7.3125 C-0.97230872 4.88615805 -0.476571 2.45093655 0 0 Z " fill="#134031" transform="translate(309,92)"/>
<path d="M0 0 C2.97 0.495 2.97 0.495 6 1 C6 1.33 6 1.66 6 2 C4.02 2.33 2.04 2.66 0 3 C0 2.01 0 1.02 0 0 Z M-3 3 C-2.01 3.33 -1.02 3.66 0 4 C-0.33 5.32 -0.66 6.64 -1 8 C-3.97 7.505 -3.97 7.505 -7 7 C-7 6.34 -7 5.68 -7 5 C-5.68 5 -4.36 5 -3 5 C-3 4.34 -3 3.68 -3 3 Z " fill="#3B5D52" transform="translate(114,309)"/>
<path d="M0 0 C0.66 0.99 1.32 1.98 2 3 C1.34 3 0.68 3 0 3 C0.33 4.98 0.66 6.96 1 9 C-0.32 9.33 -1.64 9.66 -3 10 C-3 10.66 -3 11.32 -3 12 C-3.66 12 -4.32 12 -5 12 C-3.68938409 7.76570244 -2.05643741 3.92592596 0 0 Z " fill="#C9D471" transform="translate(132,168)"/>
<path d="M0 0 C1.32 0.66 2.64 1.32 4 2 C3.67 3.32 3.34 4.64 3 6 C2.01 6 1.02 6 0 6 C0 6.66 0 7.32 0 8 C-0.99 7.67 -1.98 7.34 -3 7 C-2.625 5.0625 -2.625 5.0625 -2 3 C-1.34 2.67 -0.68 2.34 0 2 C0 1.34 0 0.68 0 0 Z " fill="#174234" transform="translate(76,290)"/>
<path d="M0 0 C0.66 0.33 1.32 0.66 2 1 C0.71034824 2.37562854 -0.62689293 3.70766393 -2 5 C-2.66 5 -3.32 5 -4 5 C-4.33 5.99 -4.66 6.98 -5 8 C-6.98 8.33 -8.96 8.66 -11 9 C-7.56638098 5.36440339 -4.2026393 2.63886654 0 0 Z " fill="#E2F0ED" transform="translate(78,33)"/>
<path d="M0 0 C1.32 0.66 2.64 1.32 4 2 C4 2.99 4 3.98 4 5 C2.02 5.33 0.04 5.66 -2 6 C-2.33 4.68 -2.66 3.36 -3 2 C-2.01 1.34 -1.02 0.68 0 0 Z " fill="#174334" transform="translate(46,264)"/>
<path d="M0 0 C1.98 0.99 3.96 1.98 6 3 C5.3125 4.9375 5.3125 4.9375 4 7 C1.375 7.75 1.375 7.75 -1 8 C-0.67 5.36 -0.34 2.72 0 0 Z " fill="#22483B" transform="translate(107,76)"/>
<path d="M0 0 C0.4846875 0.34933594 0.969375 0.69867188 1.46875 1.05859375 C6.42572853 4.42361956 10.01777843 5.67952384 16 6 C16 6.33 16 6.66 16 7 C8.54531965 8.85944408 8.54531965 8.85944408 4.84375 6.80078125 C3.05166676 5.28412064 1.45273935 3.84511912 0 2 C0 1.34 0 0.68 0 0 Z " fill="#B3CBC4" transform="translate(104,71)"/>
<path d="M0 0 C0.66 0 1.32 0 2 0 C2.268125 0.598125 2.53625 1.19625 2.8125 1.8125 C3.98493467 3.97224808 5.19369282 5.35790256 7 7 C6.34 7.66 5.68 8.32 5 9 C3.02 7.02 1.04 5.04 -1 3 C-0.67 2.01 -0.34 1.02 0 0 Z " fill="#315549" transform="translate(211,246)"/>
<path d="M0 0 C2.625 -0.1875 2.625 -0.1875 5 0 C4.04578192 1.14926266 3.08647955 2.29430541 2.125 3.4375 C1.59132812 4.07558594 1.05765625 4.71367188 0.5078125 5.37109375 C-1 7 -1 7 -3 8 C-2.45276317 4.62537285 -1.9451 2.91765 0 0 Z " fill="#CDDCD8" transform="translate(128,60)"/>
<path d="M0 0 C0.99 0.33 1.98 0.66 3 1 C2.67 2.65 2.34 4.3 2 6 C1.34 6 0.68 6 0 6 C-0.33 7.32 -0.66 8.64 -1 10 C-3 7 -3 7 -3 5 C-3.33 4.34 -3.66 3.68 -4 3 C-2.68 3 -1.36 3 0 3 C0 2.01 0 1.02 0 0 Z " fill="#1E4A3B" transform="translate(164,187)"/>
<path d="M0 0 C2.31 1.98 4.62 3.96 7 6 C6.01 6.66 5.02 7.32 4 8 C3.67 7.01 3.34 6.02 3 5 C0.99983534 3.79117904 0.99983534 3.79117904 -1 3 C-0.67 2.01 -0.34 1.02 0 0 Z " fill="#2D4F44" transform="translate(202,208)"/>
<path d="M0 0 C0 3 0 3 -1.75 4.82421875 C-2.4925 5.43910156 -3.235 6.05398437 -4 6.6875 C-4.7425 7.31011719 -5.485 7.93273437 -6.25 8.57421875 C-6.8275 9.04472656 -7.405 9.51523438 -8 10 C-8 7 -8 7 -6.25 5.17578125 C-5.5075 4.56089844 -4.765 3.94601563 -4 3.3125 C-3.2575 2.68988281 -2.515 2.06726563 -1.75 1.42578125 C-1.1725 0.95527344 -0.595 0.48476562 0 0 Z " fill="#E6E690" transform="translate(150,144)"/>
<path d="M0 0 C1.55913346 3.11826692 0.66585225 5.67073874 0 9 C-0.99 9.495 -0.99 9.495 -2 10 C-2.66 9.67 -3.32 9.34 -4 9 C-2.94124926 5.59687262 -1.99097846 2.98646769 0 0 Z " fill="#1F493B" transform="translate(192,106)"/>
<path d="M0 0 C0.33 0 0.66 0 1 0 C1 1.65 1 3.3 1 5 C0.01 5 -0.98 5 -2 5 C-2.33 5.66 -2.66 6.32 -3 7 C-3.66 6.34 -4.32 5.68 -5 5 C-5.66 5.66 -6.32 6.32 -7 7 C-7 5.68 -7 4.36 -7 3 C-3.98968256 2.06576355 -3.13349732 1.95550089 0 3 C0 2.01 0 1.02 0 0 Z " fill="#123E2F" transform="translate(33,73)"/>
<path d="M0 0 C0.33 0.66 0.66 1.32 1 2 C0.67 2.99 0.34 3.98 0 5 C-0.66 5 -1.32 5 -2 5 C-2.33 6.32 -2.66 7.64 -3 9 C-4.32 9.33 -5.64 9.66 -7 10 C-5.33248852 6.05860922 -2.77289351 3.2107188 0 0 Z " fill="#6A827A" transform="translate(42,53)"/>
<path d="M0 0 C3.98175544 2.10148204 6.35039045 4.36905358 9 8 C7.0625 7.625 7.0625 7.625 5 7 C4.67 6.34 4.34 5.68 4 5 C1.97536745 4.34786708 1.97536745 4.34786708 0 4 C0 2.68 0 1.36 0 0 Z " fill="#E5E581" transform="translate(184,146)"/>
<path d="M0 0 C-0.66 1.32 -1.32 2.64 -2 4 C-4.97 3.67 -7.94 3.34 -11 3 C-8.15930939 0.15930939 -3.81147953 -1.90573977 0 0 Z " fill="#ECF6F3" transform="translate(136,83)"/>
<path d="M0 0 C0.66 0 1.32 0 2 0 C2.79953138 3.28696233 3.09658936 4.71023192 2 8 C0.68 8 -0.64 8 -2 8 C-1.67 7.236875 -1.34 6.47375 -1 5.6875 C0.17436686 3.00930865 0.17436686 3.00930865 0 0 Z " fill="#134232" transform="translate(289,60)"/>
<path d="M0 0 C2.9719385 1.12451727 5.33440687 2.22293791 8 4 C5.36 4.33 2.72 4.66 0 5 C-0.33 4.01 -0.66 3.02 -1 2 C-0.67 1.34 -0.34 0.68 0 0 Z " fill="#23463A" transform="translate(241,243)"/>
<path d="M0 0 C1.98 1.65 3.96 3.3 6 5 C5.67 5.99 5.34 6.98 5 8 C4.5875 7.54625 4.175 7.0925 3.75 6.625 C1.93591905 4.94049626 0.24714373 4.00734029 -2 3 C-1.34 2.01 -0.68 1.02 0 0 Z " fill="#CBDDD9" transform="translate(113,63)"/>
<path d="M0 0 C0 3 0 3 -1 6 C-3.4375 7.75 -3.4375 7.75 -6 9 C-6.66 8.67 -7.32 8.34 -8 8 C-5.36 5.36 -2.72 2.72 0 0 Z " fill="#2A4B40" transform="translate(279,266)"/>
<path d="M0 0 C0.33 0 0.66 0 1 0 C1.66 3.3 2.32 6.6 3 10 C2.01 10.495 2.01 10.495 1 11 C0.63890458 9.35567294 0.28629924 7.7094792 -0.0625 6.0625 C-0.25972656 5.14597656 -0.45695313 4.22945312 -0.66015625 3.28515625 C-0.77230469 2.53105469 -0.88445312 1.77695313 -1 1 C-0.67 0.67 -0.34 0.34 0 0 Z " fill="#314E44" transform="translate(140,246)"/>
<path d="M0 0 C0.66 0 1.32 0 2 0 C2.69699552 1.45381897 3.38233866 2.91322953 4.0625 4.375 C4.63677734 5.59316406 4.63677734 5.59316406 5.22265625 6.8359375 C5.47917969 7.55007812 5.73570313 8.26421875 6 9 C5.67 9.66 5.34 10.32 5 11 C4.16151196 9.54462432 3.32936066 8.08559627 2.5 6.625 C1.80390625 5.40683594 1.80390625 5.40683594 1.09375 4.1640625 C0 2 0 2 0 0 Z " fill="#E4E484" transform="translate(77,179)"/>
<path d="M0 0 C2.475 0.99 2.475 0.99 5 2 C4.01 2.33 3.02 2.66 2 3 C2 5.31 2 7.62 2 10 C-0.4294516 6.3558226 -0.16179575 4.28758728 0 0 Z " fill="#4D665E" transform="translate(95,61)"/>
<path d="M0 0 C2.64465038 3.1254959 3.84414715 6.08788267 5 10 C4.01 10 3.02 10 2 10 C2 8.68 2 7.36 2 6 C1.34 6 0.68 6 0 6 C0 4.02 0 2.04 0 0 Z " fill="#2E4D43" transform="translate(124,39)"/>
<path d="M0 0 C0.66 0.66 1.32 1.32 2 2 C1.9375 4 1.9375 4 1 6 C-1.5625 7.25 -1.5625 7.25 -4 8 C-3.67 6.68 -3.34 5.36 -3 4 C-2.01 4 -1.02 4 0 4 C0 2.68 0 1.36 0 0 Z " fill="#D4DD72" transform="translate(130,200)"/>
<path d="M0 0 C0.33 0 0.66 0 1 0 C1 3.3 1 6.6 1 10 C1.99 10 2.98 10 4 10 C4 10.66 4 11.32 4 12 C2.68 12.33 1.36 12.66 0 13 C0 8.71 0 4.42 0 0 Z " fill="#234124" transform="translate(115,177)"/>
<path d="M0 0 C0.33 0.66 0.66 1.32 1 2 C1.66 2 2.32 2 3 2 C3.33 2.99 3.66 3.98 4 5 C3.01 5.66 2.02 6.32 1 7 C0.01 6.01 -0.98 5.02 -2 4 C-1.34 2.68 -0.68 1.36 0 0 Z " fill="#234C3E" transform="translate(202,91)"/>
<path d="M0 0 C0.66 0.33 1.32 0.66 2 1 C1.67 2.32 1.34 3.64 1 5 C-0.98 5 -2.96 5 -5 5 C-5 4.34 -5 3.68 -5 3 C-3.68 3 -2.36 3 -1 3 C-0.67 2.01 -0.34 1.02 0 0 Z " fill="#194536" transform="translate(249,25)"/>
<path d="M0 0 C0.66 0 1.32 0 2 0 C2.33 0.99 2.66 1.98 3 3 C2.360625 3.268125 1.72125 3.53625 1.0625 3.8125 C-1.33131686 4.88667752 -1.33131686 4.88667752 -2 8 C-2.33 6.68 -2.66 5.36 -3 4 C-2.34 4 -1.68 4 -1 4 C-0.67 2.68 -0.34 1.36 0 0 Z " fill="#164234" transform="translate(54,273)"/>
<path d="M0 0 C0.66 0 1.32 0 2 0 C2.33 1.32 2.66 2.64 3 4 C2.01 4.66 1.02 5.32 0 6 C-0.66 4.68 -1.32 3.36 -2 2 C-1.34 1.34 -0.68 0.68 0 0 Z " fill="#3C6155" transform="translate(294,255)"/>
<path d="M0 0 C2.475 0.495 2.475 0.495 5 1 C4.67 2.65 4.34 4.3 4 6 C2.62437146 4.71034824 1.29233607 3.37310707 0 2 C0 1.34 0 0.68 0 0 Z " fill="#526E65" transform="translate(27,250)"/>
<path d="M0 0 C0.33 0 0.66 0 1 0 C2.32854177 5.9180497 1.66464729 8.77729131 -1 14 C-1.33 14 -1.66 14 -2 14 C-2.04254356 12.00045254 -2.04080783 9.99958364 -2 8 C-1.67 7.67 -1.34 7.34 -1 7 C-0.63239269 4.67182036 -0.29758419 2.3381615 0 0 Z " fill="#CBD473" transform="translate(150,168)"/>
<path d="M0 0 C1.65 1.65 3.3 3.3 5 5 C4.67 5.99 4.34 6.98 4 8 C2 6.25 2 6.25 0 4 C0 2.68 0 1.36 0 0 Z " fill="#59766C" transform="translate(291,59)"/>
<path d="M0 0 C0.99 0 1.98 0 3 0 C3.33 1.32 3.66 2.64 4 4 C2.35 4.66 0.7 5.32 -1 6 C-0.67 4.02 -0.34 2.04 0 0 Z " fill="#1B4436" transform="translate(103,14)"/>
<path d="M0 0 C-2.35953094 2.35953094 -3.77895617 2.49141413 -7 3 C-7.33 2.01 -7.66 1.02 -8 0 C-5.13822943 -1.43088528 -3.06624227 -0.59991697 0 0 Z " fill="#607C72" transform="translate(224,314)"/>
<path d="M0 0 C0.66 0.66 1.32 1.32 2 2 C0.35 3.32 -1.3 4.64 -3 6 C-3.33 4.35 -3.66 2.7 -4 1 C-3.01 1 -2.02 1 -1 1 C-0.67 0.67 -0.34 0.34 0 0 Z " fill="#426257" transform="translate(278,276)"/>
<path d="M0 0 C1.875 0.25 1.875 0.25 4 1 C5.125 3 5.125 3 6 5 C6.66 5.33 7.32 5.66 8 6 C7.67 6.66 7.34 7.32 7 8 C4.35247996 5.42215154 2.05567935 3.08351902 0 0 Z " fill="#E7E793" transform="translate(84,193)"/>
<path d="M0 0 C-3.44450737 2.29633824 -5.93812283 2.54016485 -10 3 C-6.81859267 -0.48439851 -4.56758339 -1.41752588 0 0 Z " fill="#DDE09A" transform="translate(161,141)"/>
<path d="M0 0 C-1.8125 2 -1.8125 2 -4 4 C-7 4 -7 4 -9 3 C-5.92807025 0.26939578 -4.09590633 -0.34132553 0 0 Z " fill="#47695D" transform="translate(70,32)"/>
<path d="M0 0 C0.33 0.66 0.66 1.32 1 2 C1.99 1.67 2.98 1.34 4 1 C4.33 2.32 4.66 3.64 5 5 C2.83125748 4.49396008 1.00032373 4.00016187 -1 3 C-0.67 2.01 -0.34 1.02 0 0 Z " fill="#1D4739" transform="translate(250,30)"/>
<path d="" fill="#FFFFFF" transform="translate(0,0)"/>
<path d="" fill="#FFFFFF" transform="translate(0,0)"/>
<path d="" fill="#FFFFFF" transform="translate(0,0)"/>
<path d="" fill="#FFFFFF" transform="translate(0,0)"/>
<path d="" fill="#FFFFFF" transform="translate(0,0)"/>
<path d="" fill="#FFFFFF" transform="translate(0,0)"/>
<path d="" fill="#FFFFFF" transform="translate(0,0)"/>
<path d="" fill="#FFFFFF" transform="translate(0,0)"/>
<path d="" fill="#FFFFFF" transform="translate(0,0)"/>
<path d="" fill="#FFFFFF" transform="translate(0,0)"/>
<path d="" fill="#FFFFFF" transform="translate(0,0)"/>
<path d="" fill="#FFFFFF" transform="translate(0,0)"/>
</svg>
