<svg width="246" height="32" viewBox="0 0 246 32" fill="none" xmlns="http://www.w3.org/2000/svg">
<path d="M29.2862 14.3563L23.6612 19.21L25.375 26.4688C25.4695 26.8628 25.4452 27.2761 25.305 27.6563C25.1648 28.0365 24.9151 28.3666 24.5874 28.605C24.2597 28.8433 23.8687 28.9792 23.4638 28.9955C23.0589 29.0117 22.6582 28.9076 22.3125 28.6963L16 24.8113L9.68373 28.6963C9.33802 28.9064 8.93786 29.0095 8.53366 28.9927C8.12945 28.9758 7.73927 28.8398 7.41224 28.6016C7.08521 28.3634 6.83595 28.0339 6.69586 27.6543C6.55577 27.2748 6.53111 26.8623 6.62498 26.4688L8.34498 19.21L2.71998 14.3563C2.41411 14.0919 2.19289 13.7433 2.08396 13.354C1.97503 12.9646 1.98322 12.5518 2.1075 12.1671C2.23178 11.7824 2.46665 11.4428 2.78277 11.1908C3.09889 10.9388 3.48225 10.7855 3.88498 10.75L11.26 10.155L14.105 3.27004C14.259 2.89481 14.5211 2.57385 14.8579 2.34796C15.1948 2.12208 15.5913 2.00146 15.9969 2.00146C16.4025 2.00146 16.7989 2.12208 17.1358 2.34796C17.4726 2.57385 17.7347 2.89481 17.8887 3.27004L20.7325 10.155L28.1075 10.75C28.511 10.7842 28.8955 10.9366 29.2128 11.1883C29.53 11.44 29.766 11.7797 29.891 12.1649C30.0161 12.55 30.0247 12.9636 29.9158 13.3536C29.8069 13.7436 29.5853 14.0929 29.2787 14.3575L29.2862 14.3563Z" fill="#FFC700"/>
<path d="M69.2862 14.3563L63.6612 19.21L65.375 26.4688C65.4695 26.8628 65.4452 27.2761 65.305 27.6563C65.1648 28.0365 64.9151 28.3666 64.5874 28.605C64.2597 28.8433 63.8687 28.9792 63.4638 28.9955C63.0589 29.0117 62.6582 28.9076 62.3125 28.6963L56 24.8113L49.6837 28.6963C49.338 28.9064 48.9379 29.0095 48.5337 28.9927C48.1295 28.9758 47.7393 28.8398 47.4122 28.6016C47.0852 28.3634 46.836 28.0339 46.6959 27.6543C46.5558 27.2748 46.5311 26.8623 46.625 26.4688L48.345 19.21L42.72 14.3563C42.4141 14.0919 42.1929 13.7433 42.084 13.354C41.975 12.9646 41.9832 12.5518 42.1075 12.1671C42.2318 11.7824 42.4666 11.4428 42.7828 11.1908C43.0989 10.9388 43.4823 10.7855 43.885 10.75L51.26 10.155L54.105 3.27004C54.259 2.89481 54.5211 2.57385 54.8579 2.34796C55.1948 2.12208 55.5913 2.00146 55.9969 2.00146C56.4025 2.00146 56.7989 2.12208 57.1358 2.34796C57.4726 2.57385 57.7347 2.89481 57.8887 3.27004L60.7325 10.155L68.1075 10.75C68.511 10.7842 68.8955 10.9366 69.2128 11.1883C69.53 11.44 69.766 11.7797 69.891 12.1649C70.0161 12.55 70.0247 12.9636 69.9158 13.3536C69.8069 13.7436 69.5853 14.0929 69.2787 14.3575L69.2862 14.3563Z" fill="#FFC700"/>
<path d="M109.286 14.3563L103.661 19.21L105.375 26.4688C105.47 26.8628 105.445 27.2761 105.305 27.6563C105.165 28.0365 104.915 28.3666 104.587 28.605C104.26 28.8433 103.869 28.9792 103.464 28.9955C103.059 29.0117 102.658 28.9076 102.312 28.6963L96 24.8113L89.6837 28.6963C89.338 28.9064 88.9379 29.0095 88.5337 28.9927C88.1295 28.9758 87.7393 28.8398 87.4122 28.6016C87.0852 28.3634 86.836 28.0339 86.6959 27.6543C86.5558 27.2748 86.5311 26.8623 86.625 26.4688L88.345 19.21L82.72 14.3563C82.4141 14.0919 82.1929 13.7433 82.084 13.354C81.975 12.9646 81.9832 12.5518 82.1075 12.1671C82.2318 11.7824 82.4666 11.4428 82.7828 11.1908C83.0989 10.9388 83.4823 10.7855 83.885 10.75L91.26 10.155L94.105 3.27004C94.259 2.89481 94.5211 2.57385 94.8579 2.34796C95.1948 2.12208 95.5913 2.00146 95.9969 2.00146C96.4025 2.00146 96.7989 2.12208 97.1358 2.34796C97.4726 2.57385 97.7347 2.89481 97.8887 3.27004L100.732 10.155L108.107 10.75C108.511 10.7842 108.895 10.9366 109.213 11.1883C109.53 11.44 109.766 11.7797 109.891 12.1649C110.016 12.55 110.025 12.9636 109.916 13.3536C109.807 13.7436 109.585 14.0929 109.279 14.3575L109.286 14.3563Z" fill="#FFC700"/>
<path d="M149.286 14.3563L143.661 19.21L145.375 26.4688C145.47 26.8628 145.445 27.2761 145.305 27.6563C145.165 28.0365 144.915 28.3666 144.587 28.605C144.26 28.8433 143.869 28.9792 143.464 28.9955C143.059 29.0117 142.658 28.9076 142.312 28.6963L136 24.8113L129.684 28.6963C129.338 28.9064 128.938 29.0095 128.534 28.9927C128.129 28.9758 127.739 28.8398 127.412 28.6016C127.085 28.3634 126.836 28.0339 126.696 27.6543C126.556 27.2748 126.531 26.8623 126.625 26.4688L128.345 19.21L122.72 14.3563C122.414 14.0919 122.193 13.7433 122.084 13.354C121.975 12.9646 121.983 12.5518 122.108 12.1671C122.232 11.7824 122.467 11.4428 122.783 11.1908C123.099 10.9388 123.482 10.7855 123.885 10.75L131.26 10.155L134.105 3.27004C134.259 2.89481 134.521 2.57385 134.858 2.34796C135.195 2.12208 135.591 2.00146 135.997 2.00146C136.402 2.00146 136.799 2.12208 137.136 2.34796C137.473 2.57385 137.735 2.89481 137.889 3.27004L140.732 10.155L148.107 10.75C148.511 10.7842 148.895 10.9366 149.213 11.1883C149.53 11.44 149.766 11.7797 149.891 12.1649C150.016 12.55 150.025 12.9636 149.916 13.3536C149.807 13.7436 149.585 14.0929 149.279 14.3575L149.286 14.3563Z" fill="#FFC700"/>
<path d="M189.66 12.2337C189.553 11.8949 189.346 11.5961 189.067 11.3761C188.788 11.1561 188.449 11.025 188.095 11L180.564 10.3912L177.661 3.36622C177.526 3.03694 177.296 2.75534 177 2.55716C176.704 2.35898 176.356 2.25317 176 2.25317C175.644 2.25317 175.296 2.35898 175 2.55716C174.704 2.75534 174.474 3.03694 174.339 3.36622L171.436 10.3887L163.905 11C163.55 11.0252 163.211 11.1566 162.932 11.3771C162.653 11.5976 162.447 11.8969 162.34 12.2362C162.229 12.5746 162.22 12.9384 162.315 13.2816C162.411 13.6249 162.605 13.9322 162.875 14.165L168.625 19.1162L166.875 26.5225C166.793 26.8691 166.815 27.2322 166.94 27.566C167.064 27.8998 167.285 28.1891 167.574 28.3975C167.859 28.6089 168.202 28.7291 168.557 28.7425C168.911 28.7559 169.262 28.6618 169.563 28.4725L176 24.515L182.448 28.4787C182.748 28.668 183.099 28.7622 183.453 28.7488C183.808 28.7354 184.151 28.6151 184.436 28.4037C184.725 28.1954 184.946 27.906 185.07 27.5723C185.195 27.2385 185.217 26.8753 185.135 26.5287L183.385 19.1225L189.125 14.165C189.395 13.932 189.59 13.6242 189.685 13.2805C189.781 12.9367 189.772 12.5725 189.66 12.2337ZM188.143 13.03L182.056 18.28C181.952 18.3696 181.875 18.486 181.833 18.6164C181.791 18.7469 181.785 18.8865 181.816 19.02L183.676 26.8687C183.693 26.928 183.69 26.9908 183.669 27.0484C183.647 27.1061 183.608 27.1556 183.558 27.19C183.511 27.2256 183.455 27.246 183.397 27.2482C183.339 27.2505 183.281 27.2345 183.233 27.2025L176.393 23C176.274 22.9275 176.139 22.8891 176 22.8891C175.861 22.8891 175.726 22.9275 175.608 23L168.768 27.2012C168.719 27.2332 168.661 27.2492 168.603 27.247C168.545 27.2448 168.489 27.2244 168.443 27.1887C168.39 27.1552 168.35 27.1061 168.328 27.0484C168.305 26.9907 168.302 26.9274 168.318 26.8675L170.178 19.0187C170.209 18.8852 170.203 18.7456 170.161 18.6152C170.119 18.4847 170.041 18.3683 169.938 18.2787L163.851 13.0287C163.804 12.9898 163.769 12.937 163.753 12.8777C163.736 12.8183 163.739 12.7553 163.76 12.6975C163.776 12.6404 163.81 12.5899 163.856 12.553C163.903 12.516 163.96 12.4944 164.019 12.4912L172.009 11.8462C172.146 11.835 172.278 11.7861 172.39 11.7047C172.502 11.6233 172.589 11.5126 172.641 11.385L175.72 3.93497C175.741 3.87983 175.779 3.83244 175.828 3.79904C175.877 3.76563 175.935 3.74776 175.994 3.74776C176.053 3.74776 176.111 3.76563 176.16 3.79904C176.208 3.83244 176.246 3.87983 176.268 3.93497L179.346 11.385C179.399 11.5126 179.486 11.6233 179.598 11.7047C179.709 11.7861 179.841 11.835 179.979 11.8462L187.969 12.4912C188.028 12.4944 188.085 12.516 188.131 12.553C188.178 12.5899 188.211 12.6404 188.228 12.6975C188.25 12.7549 188.253 12.8177 188.238 12.8773C188.223 12.9369 188.189 12.9902 188.143 13.03Z" fill="#FFC700"/>
<path d="M208.78 14.62C208.78 14.1667 209.193 13.94 210.02 13.94C211.127 13.94 211.853 13.76 212.2 13.4C212.44 13.1333 212.56 12.78 212.56 12.34C212.56 12.18 212.54 12 212.5 11.8C212.82 11.6533 213.1 11.58 213.34 11.58C213.58 11.58 213.787 11.64 213.96 11.76C214.333 12 214.52 12.4 214.52 12.96C214.52 13.52 214.26 13.9933 213.74 14.38C213.22 14.7667 212.447 14.9667 211.42 14.98C211.807 15.6333 212 16.4333 212 17.38C212 18.7267 211.5 19.8667 210.5 20.8C209.5 21.72 208.22 22.18 206.66 22.18C205.1 22.18 203.84 21.78 202.88 20.98C201.92 20.18 201.44 19.16 201.44 17.92C201.44 16.4267 202.187 15.22 203.68 14.3C203.133 14.06 202.707 13.6933 202.4 13.2C202.107 12.6933 201.96 12.1 201.96 11.42C201.96 10.26 202.353 9.32 203.14 8.6C203.927 7.86667 204.787 7.5 205.72 7.5C206.667 7.5 207.38 7.67333 207.86 8.02C208.353 8.36667 208.6 8.82 208.6 9.38C208.6 9.72667 208.453 9.98667 208.16 10.16C207.987 10.24 207.807 10.28 207.62 10.28C207.433 10.28 207.247 10.2533 207.06 10.2C207.007 9.6 206.84 9.17333 206.56 8.92C206.293 8.65333 205.887 8.52 205.34 8.52C204.807 8.52 204.353 8.74 203.98 9.18C203.62 9.60667 203.44 10.1867 203.44 10.92C203.44 11.6533 203.68 12.24 204.16 12.68C204.653 13.1067 205.36 13.32 206.28 13.32C206.36 13.4533 206.4 13.5933 206.4 13.74C206.4 13.8733 206.347 14.0133 206.24 14.16C206.013 14.44 205.633 14.58 205.1 14.58C204.887 14.58 204.727 14.5733 204.62 14.56C204.14 14.88 203.76 15.3067 203.48 15.84C203.2 16.3733 203.06 16.9333 203.06 17.52C203.06 18.52 203.4 19.3 204.08 19.86C204.773 20.42 205.687 20.7 206.82 20.7C207.967 20.7 208.933 20.3933 209.72 19.78C210.52 19.1667 210.92 18.3867 210.92 17.44C210.92 15.8267 210.24 15.02 208.88 15.02C208.813 14.8733 208.78 14.74 208.78 14.62ZM222.02 16.86V8.9C222.02 8.52667 221.853 8.26667 221.52 8.12C221.813 7.70667 222.16 7.5 222.56 7.5C223.307 7.5 223.68 7.96 223.68 8.88V17.06C223.68 18.2733 223.967 19.1933 224.54 19.82C225.127 20.4333 226.047 20.74 227.3 20.74C229.713 20.74 230.92 19.5133 230.92 17.06V8.9C230.92 8.52667 230.747 8.26667 230.4 8.12C230.667 7.70667 231.02 7.5 231.46 7.5C232.193 7.5 232.56 7.96 232.56 8.88V16.86C232.56 18.5133 232.133 19.8133 231.28 20.76C230.427 21.6933 229.107 22.16 227.32 22.16C225.533 22.16 224.2 21.6867 223.32 20.74C222.453 19.7933 222.02 18.5 222.02 16.86ZM240.182 20.82C240.995 20.82 241.682 20.4733 242.242 19.78C242.815 19.0733 243.102 18.12 243.102 16.92C243.102 15.72 242.815 14.7733 242.242 14.08C241.682 13.3867 240.995 13.04 240.182 13.04C239.035 13.04 238.169 13.5867 237.582 14.68V19.44C237.915 19.9467 238.289 20.3067 238.702 20.52C239.115 20.72 239.609 20.82 240.182 20.82ZM237.582 13.06V13.08C238.275 12.1333 239.222 11.66 240.422 11.66C241.635 11.66 242.669 12.12 243.522 13.04C244.389 13.9467 244.822 15.2333 244.822 16.9C244.822 18.5667 244.369 19.86 243.462 20.78C242.569 21.7 241.535 22.16 240.362 22.16C239.202 22.16 238.275 21.7733 237.582 21V25.54C237.582 25.94 237.749 26.2 238.082 26.32C237.802 26.7467 237.455 26.96 237.042 26.96C236.295 26.96 235.922 26.4867 235.922 25.54V13.1C235.922 12.7133 235.755 12.4467 235.422 12.3C235.675 11.8733 236.022 11.66 236.462 11.66C237.209 11.66 237.582 12.1267 237.582 13.06Z" fill="#12372D"/>
</svg>
