<svg width="249" height="34" viewBox="0 0 249 34" fill="none" xmlns="http://www.w3.org/2000/svg">
<path d="M28.371 14.3563L22.9218 19.21L24.582 26.4688C24.6736 26.8628 24.65 27.2761 24.5142 27.6563C24.3784 28.0365 24.1365 28.3666 23.819 28.605C23.5016 28.8433 23.1228 28.9792 22.7305 28.9955C22.3383 29.0117 21.9502 28.9076 21.6152 28.6963L15.5 24.8113L9.38112 28.6963C9.04621 28.9064 8.65856 29.0095 8.26698 28.9927C7.87541 28.9758 7.49742 28.8398 7.18061 28.6016C6.8638 28.3634 6.62233 28.0339 6.48662 27.6543C6.35091 27.2748 6.32702 26.8623 6.41795 26.4688L8.0842 19.21L2.63499 14.3563C2.33867 14.0919 2.12436 13.7433 2.01884 13.354C1.91332 12.9646 1.92125 12.5518 2.04164 12.1671C2.16204 11.7824 2.38957 11.4428 2.69581 11.1908C3.00205 10.9388 3.37343 10.7855 3.76358 10.75L10.9081 10.155L13.6642 3.27004C13.8134 2.89481 14.0673 2.57385 14.3936 2.34796C14.72 2.12208 15.104 2.00146 15.497 2.00146C15.8899 2.00146 16.2739 2.12208 16.6003 2.34796C16.9266 2.57385 17.1805 2.89481 17.3297 3.27004L20.0846 10.155L27.2291 10.75C27.62 10.7842 27.9925 10.9366 28.2999 11.1883C28.6072 11.44 28.8358 11.7797 28.9569 12.1649C29.0781 12.55 29.0864 12.9636 28.9809 13.3536C28.8754 13.7436 28.6607 14.0929 28.3638 14.3575L28.371 14.3563Z" fill="#FFC700"/>
<g clip-path="url(#clip0_6_99)">
<path d="M68.66 12.2337C68.5529 11.8949 68.3464 11.5961 68.0673 11.3761C67.7882 11.1561 67.4495 11.025 67.095 11L59.5638 10.3912L56.6613 3.36622C56.5259 3.03694 56.2956 2.75534 55.9998 2.55716C55.7041 2.35898 55.3561 2.25317 55 2.25317C54.644 2.25317 54.296 2.35898 54.0002 2.55716C53.7044 2.75534 53.4742 3.03694 53.3388 3.36622L50.4363 10.3887L42.905 11C42.5502 11.0252 42.2113 11.1566 41.9322 11.3771C41.653 11.5976 41.4467 11.8969 41.34 12.2362C41.2288 12.5746 41.2202 12.9384 41.3154 13.2816C41.4107 13.6249 41.6054 13.9322 41.875 14.165L47.625 19.1162L45.875 26.5225C45.7929 26.8691 45.8155 27.2322 45.9399 27.566C46.0642 27.8998 46.2849 28.1891 46.5738 28.3975C46.8591 28.6089 47.2017 28.7291 47.5565 28.7425C47.9114 28.7559 48.2621 28.6618 48.5625 28.4725L55 24.515L61.4475 28.4787C61.748 28.668 62.0986 28.7622 62.4535 28.7488C62.8084 28.7354 63.1509 28.6151 63.4363 28.4037C63.7252 28.1954 63.9458 27.906 64.0702 27.5723C64.1946 27.2385 64.2171 26.8753 64.135 26.5287L62.385 19.1225L68.125 14.165C68.3952 13.932 68.5902 13.6242 68.6854 13.2805C68.7806 12.9367 68.7718 12.5725 68.66 12.2337ZM67.1425 13.03L61.0563 18.28C60.9524 18.3696 60.8751 18.486 60.8328 18.6164C60.7905 18.7469 60.7848 18.8865 60.8163 19.02L62.6763 26.8687C62.6926 26.928 62.6899 26.9908 62.6686 27.0484C62.6473 27.1061 62.6084 27.1556 62.5575 27.19C62.5114 27.2256 62.4553 27.246 62.397 27.2482C62.3388 27.2505 62.2812 27.2345 62.2325 27.2025L55.3925 23C55.2744 22.9275 55.1386 22.8891 55 22.8891C54.8615 22.8891 54.7256 22.9275 54.6075 23L47.7675 27.2012C47.7188 27.2332 47.6613 27.2492 47.603 27.247C47.5448 27.2448 47.4886 27.2244 47.4425 27.1887C47.3905 27.1552 47.3504 27.1061 47.3279 27.0484C47.3055 26.9907 47.3018 26.9274 47.3175 26.8675L49.1775 19.0187C49.209 18.8852 49.2033 18.7456 49.161 18.6152C49.1187 18.4847 49.0414 18.3683 48.9375 18.2787L42.8513 13.0287C42.8035 12.9898 42.7691 12.937 42.7527 12.8777C42.7364 12.8183 42.7389 12.7553 42.76 12.6975C42.7763 12.6404 42.81 12.5899 42.8564 12.553C42.9028 12.516 42.9595 12.4944 43.0188 12.4912L51.0088 11.8462C51.1464 11.835 51.2784 11.7861 51.39 11.7047C51.5016 11.6233 51.5885 11.5126 51.6413 11.385L54.72 3.93497C54.7415 3.87983 54.7791 3.83244 54.8279 3.79904C54.8768 3.76563 54.9346 3.74776 54.9938 3.74776C55.0529 3.74776 55.1107 3.76563 55.1596 3.79904C55.2084 3.83244 55.2461 3.87983 55.2675 3.93497L58.3463 11.385C58.399 11.5126 58.486 11.6233 58.5976 11.7047C58.7092 11.7861 58.8411 11.835 58.9788 11.8462L66.9688 12.4912C67.028 12.4944 67.0848 12.516 67.1311 12.553C67.1775 12.5899 67.2112 12.6404 67.2275 12.6975C67.2496 12.7549 67.2533 12.8177 67.2381 12.8773C67.2228 12.9369 67.1894 12.9902 67.1425 13.03Z" fill="#FFC700"/>
</g>
<g clip-path="url(#clip1_6_99)">
<path d="M146.66 12.2337C146.553 11.8949 146.346 11.5961 146.067 11.3761C145.788 11.1561 145.449 11.025 145.095 11L137.564 10.3912L134.661 3.36622C134.526 3.03694 134.296 2.75534 134 2.55716C133.704 2.35898 133.356 2.25317 133 2.25317C132.644 2.25317 132.296 2.35898 132 2.55716C131.704 2.75534 131.474 3.03694 131.339 3.36622L128.436 10.3887L120.905 11C120.55 11.0252 120.211 11.1566 119.932 11.3771C119.653 11.5976 119.447 11.8969 119.34 12.2362C119.229 12.5746 119.22 12.9384 119.315 13.2816C119.411 13.6249 119.605 13.9322 119.875 14.165L125.625 19.1162L123.875 26.5225C123.793 26.8691 123.815 27.2322 123.94 27.566C124.064 27.8998 124.285 28.1891 124.574 28.3975C124.859 28.6089 125.202 28.7291 125.557 28.7425C125.911 28.7559 126.262 28.6618 126.563 28.4725L133 24.515L139.448 28.4787C139.748 28.668 140.099 28.7622 140.453 28.7488C140.808 28.7354 141.151 28.6151 141.436 28.4037C141.725 28.1954 141.946 27.906 142.07 27.5723C142.195 27.2385 142.217 26.8753 142.135 26.5287L140.385 19.1225L146.125 14.165C146.395 13.932 146.59 13.6242 146.685 13.2805C146.781 12.9367 146.772 12.5725 146.66 12.2337ZM145.143 13.03L139.056 18.28C138.952 18.3696 138.875 18.486 138.833 18.6164C138.791 18.7469 138.785 18.8865 138.816 19.02L140.676 26.8687C140.693 26.928 140.69 26.9908 140.669 27.0484C140.647 27.1061 140.608 27.1556 140.558 27.19C140.511 27.2256 140.455 27.246 140.397 27.2482C140.339 27.2505 140.281 27.2345 140.233 27.2025L133.393 23C133.274 22.9275 133.139 22.8891 133 22.8891C132.861 22.8891 132.726 22.9275 132.608 23L125.768 27.2012C125.719 27.2332 125.661 27.2492 125.603 27.247C125.545 27.2448 125.489 27.2244 125.443 27.1887C125.39 27.1552 125.35 27.1061 125.328 27.0484C125.305 26.9907 125.302 26.9274 125.318 26.8675L127.178 19.0187C127.209 18.8852 127.203 18.7456 127.161 18.6152C127.119 18.4847 127.041 18.3683 126.938 18.2787L120.851 13.0287C120.804 12.9898 120.769 12.937 120.753 12.8777C120.736 12.8183 120.739 12.7553 120.76 12.6975C120.776 12.6404 120.81 12.5899 120.856 12.553C120.903 12.516 120.96 12.4944 121.019 12.4912L129.009 11.8462C129.146 11.835 129.278 11.7861 129.39 11.7047C129.502 11.6233 129.589 11.5126 129.641 11.385L132.72 3.93497C132.741 3.87983 132.779 3.83244 132.828 3.79904C132.877 3.76563 132.935 3.74776 132.994 3.74776C133.053 3.74776 133.111 3.76563 133.16 3.79904C133.208 3.83244 133.246 3.87983 133.268 3.93497L136.346 11.385C136.399 11.5126 136.486 11.6233 136.598 11.7047C136.709 11.7861 136.841 11.835 136.979 11.8462L144.969 12.4912C145.028 12.4944 145.085 12.516 145.131 12.553C145.178 12.5899 145.211 12.6404 145.228 12.6975C145.25 12.7549 145.253 12.8177 145.238 12.8773C145.223 12.9369 145.189 12.9902 145.143 13.03Z" fill="#FFC700"/>
</g>
<path d="M184.66 12.2337C184.553 11.8949 184.346 11.5961 184.067 11.3761C183.788 11.1561 183.449 11.025 183.095 11L175.564 10.3912L172.661 3.36622C172.526 3.03694 172.296 2.75534 172 2.55716C171.704 2.35898 171.356 2.25317 171 2.25317C170.644 2.25317 170.296 2.35898 170 2.55716C169.704 2.75534 169.474 3.03694 169.339 3.36622L166.436 10.3887L158.905 11C158.55 11.0252 158.211 11.1566 157.932 11.3771C157.653 11.5976 157.447 11.8969 157.34 12.2362C157.229 12.5746 157.22 12.9384 157.315 13.2816C157.411 13.6249 157.605 13.9322 157.875 14.165L163.625 19.1162L161.875 26.5225C161.793 26.8691 161.815 27.2322 161.94 27.566C162.064 27.8998 162.285 28.1891 162.574 28.3975C162.859 28.6089 163.202 28.7291 163.557 28.7425C163.911 28.7559 164.262 28.6618 164.563 28.4725L171 24.515L177.448 28.4787C177.748 28.668 178.099 28.7622 178.453 28.7488C178.808 28.7354 179.151 28.6151 179.436 28.4037C179.725 28.1954 179.946 27.906 180.07 27.5723C180.195 27.2385 180.217 26.8753 180.135 26.5287L178.385 19.1225L184.125 14.165C184.395 13.932 184.59 13.6242 184.685 13.2805C184.781 12.9367 184.772 12.5725 184.66 12.2337ZM183.143 13.03L177.056 18.28C176.952 18.3696 176.875 18.486 176.833 18.6164C176.791 18.7469 176.785 18.8865 176.816 19.02L178.676 26.8687C178.693 26.928 178.69 26.9908 178.669 27.0484C178.647 27.1061 178.608 27.1556 178.558 27.19C178.511 27.2256 178.455 27.246 178.397 27.2482C178.339 27.2505 178.281 27.2345 178.233 27.2025L171.393 23C171.274 22.9275 171.139 22.8891 171 22.8891C170.861 22.8891 170.726 22.9275 170.608 23L163.768 27.2012C163.719 27.2332 163.661 27.2492 163.603 27.247C163.545 27.2448 163.489 27.2244 163.443 27.1887C163.39 27.1552 163.35 27.1061 163.328 27.0484C163.305 26.9907 163.302 26.9274 163.318 26.8675L165.178 19.0187C165.209 18.8852 165.203 18.7456 165.161 18.6152C165.119 18.4847 165.041 18.3683 164.938 18.2787L158.851 13.0287C158.804 12.9898 158.769 12.937 158.753 12.8777C158.736 12.8183 158.739 12.7553 158.76 12.6975C158.776 12.6404 158.81 12.5899 158.856 12.553C158.903 12.516 158.96 12.4944 159.019 12.4912L167.009 11.8462C167.146 11.835 167.278 11.7861 167.39 11.7047C167.502 11.6233 167.589 11.5126 167.641 11.385L170.72 3.93497C170.741 3.87983 170.779 3.83244 170.828 3.79904C170.877 3.76563 170.935 3.74776 170.994 3.74776C171.053 3.74776 171.111 3.76563 171.16 3.79904C171.208 3.83244 171.246 3.87983 171.268 3.93497L174.346 11.385C174.399 11.5126 174.486 11.6233 174.598 11.7047C174.709 11.7861 174.841 11.835 174.979 11.8462L182.969 12.4912C183.028 12.4944 183.085 12.516 183.131 12.553C183.178 12.5899 183.211 12.6404 183.228 12.6975C183.25 12.7549 183.253 12.8177 183.238 12.8773C183.223 12.9369 183.189 12.9902 183.143 13.03Z" fill="#FFC700"/>
<path d="M202.78 14.62C202.78 14.1667 203.193 13.94 204.02 13.94C205.127 13.94 205.853 13.76 206.2 13.4C206.44 13.1333 206.56 12.78 206.56 12.34C206.56 12.18 206.54 12 206.5 11.8C206.82 11.6533 207.1 11.58 207.34 11.58C207.58 11.58 207.787 11.64 207.96 11.76C208.333 12 208.52 12.4 208.52 12.96C208.52 13.52 208.26 13.9933 207.74 14.38C207.22 14.7667 206.447 14.9667 205.42 14.98C205.807 15.6333 206 16.4333 206 17.38C206 18.7267 205.5 19.8667 204.5 20.8C203.5 21.72 202.22 22.18 200.66 22.18C199.1 22.18 197.84 21.78 196.88 20.98C195.92 20.18 195.44 19.16 195.44 17.92C195.44 16.4267 196.187 15.22 197.68 14.3C197.133 14.06 196.707 13.6933 196.4 13.2C196.107 12.6933 195.96 12.1 195.96 11.42C195.96 10.26 196.353 9.32 197.14 8.6C197.927 7.86667 198.787 7.5 199.72 7.5C200.667 7.5 201.38 7.67333 201.86 8.02C202.353 8.36667 202.6 8.82 202.6 9.38C202.6 9.72667 202.453 9.98667 202.16 10.16C201.987 10.24 201.807 10.28 201.62 10.28C201.433 10.28 201.247 10.2533 201.06 10.2C201.007 9.6 200.84 9.17333 200.56 8.92C200.293 8.65333 199.887 8.52 199.34 8.52C198.807 8.52 198.353 8.74 197.98 9.18C197.62 9.60667 197.44 10.1867 197.44 10.92C197.44 11.6533 197.68 12.24 198.16 12.68C198.653 13.1067 199.36 13.32 200.28 13.32C200.36 13.4533 200.4 13.5933 200.4 13.74C200.4 13.8733 200.347 14.0133 200.24 14.16C200.013 14.44 199.633 14.58 199.1 14.58C198.887 14.58 198.727 14.5733 198.62 14.56C198.14 14.88 197.76 15.3067 197.48 15.84C197.2 16.3733 197.06 16.9333 197.06 17.52C197.06 18.52 197.4 19.3 198.08 19.86C198.773 20.42 199.687 20.7 200.82 20.7C201.967 20.7 202.933 20.3933 203.72 19.78C204.52 19.1667 204.92 18.3867 204.92 17.44C204.92 15.8267 204.24 15.02 202.88 15.02C202.813 14.8733 202.78 14.74 202.78 14.62ZM216.02 16.86V8.9C216.02 8.52667 215.853 8.26667 215.52 8.12C215.813 7.70667 216.16 7.5 216.56 7.5C217.307 7.5 217.68 7.96 217.68 8.88V17.06C217.68 18.2733 217.967 19.1933 218.54 19.82C219.127 20.4333 220.047 20.74 221.3 20.74C223.713 20.74 224.92 19.5133 224.92 17.06V8.9C224.92 8.52667 224.747 8.26667 224.4 8.12C224.667 7.70667 225.02 7.5 225.46 7.5C226.193 7.5 226.56 7.96 226.56 8.88V16.86C226.56 18.5133 226.133 19.8133 225.28 20.76C224.427 21.6933 223.107 22.16 221.32 22.16C219.533 22.16 218.2 21.6867 217.32 20.74C216.453 19.7933 216.02 18.5 216.02 16.86ZM234.182 20.82C234.995 20.82 235.682 20.4733 236.242 19.78C236.815 19.0733 237.102 18.12 237.102 16.92C237.102 15.72 236.815 14.7733 236.242 14.08C235.682 13.3867 234.995 13.04 234.182 13.04C233.035 13.04 232.169 13.5867 231.582 14.68V19.44C231.915 19.9467 232.289 20.3067 232.702 20.52C233.115 20.72 233.609 20.82 234.182 20.82ZM231.582 13.06V13.08C232.275 12.1333 233.222 11.66 234.422 11.66C235.635 11.66 236.669 12.12 237.522 13.04C238.389 13.9467 238.822 15.2333 238.822 16.9C238.822 18.5667 238.369 19.86 237.462 20.78C236.569 21.7 235.535 22.16 234.362 22.16C233.202 22.16 232.275 21.7733 231.582 21V25.54C231.582 25.94 231.749 26.2 232.082 26.32C231.802 26.7467 231.455 26.96 231.042 26.96C230.295 26.96 229.922 26.4867 229.922 25.54V13.1C229.922 12.7133 229.755 12.4467 229.422 12.3C229.675 11.8733 230.022 11.66 230.462 11.66C231.209 11.66 231.582 12.1267 231.582 13.06Z" fill="#12372D"/>
<path d="M104.733 14.2337C104.629 13.8949 104.429 13.5961 104.159 13.3761C103.889 13.1561 103.56 13.025 103.217 13L95.9211 12.3912L93.1093 5.36622C92.9782 5.03694 92.7551 4.75534 92.4686 4.55716C92.1821 4.35898 91.8449 4.25317 91.5 4.25317C91.1551 4.25317 90.818 4.35898 90.5314 4.55716C90.2449 4.75534 90.0219 5.03694 89.8907 5.36622L87.0789 12.3887L79.783 13C79.4393 13.0252 79.1109 13.1566 78.8405 13.3771C78.5701 13.5976 78.3703 13.8969 78.2669 14.2362C78.1591 14.5746 78.1508 14.9384 78.2431 15.2816C78.3353 15.6249 78.5239 15.9322 78.7852 16.165L84.3555 21.1162L82.6602 28.5225C82.5806 28.8691 82.6025 29.2322 82.723 29.566C82.8435 29.8998 83.0572 30.1891 83.3371 30.3975C83.6135 30.6089 83.9454 30.7291 84.2891 30.7425C84.6329 30.7559 84.9726 30.6618 85.2637 30.4725L91.5 26.515L97.746 30.4787C98.0371 30.668 98.3768 30.7622 98.7206 30.7488C99.0644 30.7354 99.3962 30.6151 99.6726 30.4037C99.9525 30.1954 100.166 29.906 100.287 29.5723C100.407 29.2385 100.429 28.8753 100.35 28.5287L98.6542 21.1225L104.215 16.165C104.477 15.932 104.665 15.6242 104.758 15.2805C104.85 14.9367 104.841 14.5725 104.733 14.2337ZM103.263 15.03L97.367 20.28C97.2664 20.3696 97.1915 20.486 97.1505 20.6164C97.1095 20.7469 97.104 20.8865 97.1345 21.02L98.9364 28.8687C98.9522 28.928 98.9495 28.9908 98.9289 29.0484C98.9083 29.1061 98.8707 29.1556 98.8213 29.19C98.7767 29.2256 98.7223 29.246 98.6659 29.2482C98.6094 29.2505 98.5537 29.2345 98.5065 29.2025L91.8802 25C91.7659 24.9275 91.6342 24.8891 91.5 24.8891C91.3658 24.8891 91.2342 24.9275 91.1198 25L84.4935 29.2012C84.4463 29.2332 84.3906 29.2492 84.3342 29.247C84.2777 29.2448 84.2234 29.2244 84.1787 29.1887C84.1283 29.1552 84.0894 29.1061 84.0677 29.0484C84.0459 28.9907 84.0424 28.9274 84.0576 28.8675L85.8595 21.0187C85.89 20.8852 85.8844 20.7456 85.8434 20.6152C85.8024 20.4847 85.7276 20.3683 85.627 20.2787L79.7309 15.0287C79.6847 14.9898 79.6513 14.937 79.6354 14.8777C79.6196 14.8183 79.6221 14.7553 79.6425 14.6975C79.6583 14.6404 79.6909 14.5899 79.7359 14.553C79.7808 14.516 79.8358 14.4944 79.8932 14.4912L87.6335 13.8462C87.7669 13.835 87.8947 13.7861 88.0028 13.7047C88.1109 13.6233 88.1951 13.5126 88.2462 13.385L91.2288 5.93497C91.2496 5.87983 91.286 5.83244 91.3333 5.79904C91.3806 5.76563 91.4366 5.74776 91.494 5.74776C91.5513 5.74776 91.6073 5.76563 91.6546 5.79904C91.7019 5.83244 91.7384 5.87983 91.7592 5.93497L94.7417 13.385C94.7928 13.5126 94.877 13.6233 94.9851 13.7047C95.0933 13.7861 95.2211 13.835 95.3544 13.8462L103.095 14.4912C103.152 14.4944 103.207 14.516 103.252 14.553C103.297 14.5899 103.33 14.6404 103.345 14.6975C103.367 14.7549 103.37 14.8177 103.356 14.8773C103.341 14.9369 103.309 14.9902 103.263 15.03Z" fill="#FFC700"/>
<defs>
<clipPath id="clip0_6_99">
<rect width="31" height="32" fill="white" transform="translate(39)"/>
</clipPath>
<clipPath id="clip1_6_99">
<rect width="31" height="32" fill="white" transform="translate(117)"/>
</clipPath>
</defs>
</svg>
